<mxfile host="app.diagrams.net" modified="2023-09-10T05:23:11.009Z" agent="Mozilla/5.0 (Windows NT 10.0; Win64; x64) AppleWebKit/537.36 (KHTML, like Gecko) Chrome/116.0.0.0 Safari/537.36" etag="ocOdD2oSk_w9x_Yz39Bo" version="21.7.0" type="device">
  <diagram name="Página-1" id="WvUrSzUP7gxILRHiQbs2">
    <mxGraphModel dx="4027" dy="2769" grid="1" gridSize="10" guides="1" tooltips="1" connect="1" arrows="1" fold="1" page="1" pageScale="1" pageWidth="827" pageHeight="1169" math="0" shadow="0">
      <root>
        <mxCell id="0" />
        <mxCell id="1" parent="0" />
        <mxCell id="EGHb8W3hOEWeccC0JwiV-1" value="1. &lt;br&gt;Se debe modelar la información necesaria para una Inmobiliaria de la ciudad de La&lt;br&gt;Plata.&lt;br&gt;&lt;br&gt;Es necesario modelar la información de clientes y empleados de la inmobiliaria. &lt;br&gt;De ambos se conoce D.N.I, nombre, apellido y dirección detallada. &lt;br&gt;Además de los empleados se conoce el número de legajo, el cual no se repite entre diferentes empleados y el área&lt;br&gt;donde trabaja cada uno. &lt;br&gt;&lt;br&gt;Los empleados pueden ir rotando de área a lo largo del tiempo y&lt;br&gt;es necesario modelar por las distintas áreas que pasó un empleado. &lt;br&gt;De las áreas se conoce código único de área, descripción, teléfonos y ubicación. &lt;br&gt;&lt;br&gt;De cada cliente, además, se debe almacenar sexo, nacionalidad, número de pasaporte (si tuviera) y los inmuebles de los que es dueño. &lt;br&gt;&lt;br&gt;Un cliente no puede trabajar en la inmobiliaria. &lt;br&gt;&lt;br&gt;La inmobiliaria maneja diferentes inmuebles de los cuales se conoce dirección detallada, código único de inmueble, cantidad de ambientes, si posee balcón, si posee lavadero,&lt;br&gt;cantidad de baños, si se alquila, se vende o ambas cosas, precio de venta y precio de&lt;br&gt;alquiler, tipo de inmueble (casa, duplex, depto,...).&lt;br&gt;&lt;br&gt;Debe quedar registrado todo alquiler y venta que realiza la inmobiliaria detallando, para los&lt;br&gt;alquileres inmueble, cliente, fechas de inicio y fin de alquiler, empleado que alquiló y precio.&lt;br&gt;&lt;br&gt;De las ventas se registran fecha y hora de venta, cliente, empleado que vendió la&lt;br&gt;propiedad, precio de venta y comisión de venta.&lt;br&gt;Nota: tenga en cuenta que podría pedirse promedio de ventas de un semestre del año,&lt;br&gt;vendedor más exitoso del año, tipo de inmueble más alquilado o más vendido entre otros" style="text;whiteSpace=wrap;html=1;" vertex="1" parent="1">
          <mxGeometry x="150" y="-220" width="580" height="320" as="geometry" />
        </mxCell>
        <mxCell id="EGHb8W3hOEWeccC0JwiV-2" value="Personas" style="rounded=0;whiteSpace=wrap;html=1;" vertex="1" parent="1">
          <mxGeometry x="130" y="530" width="120" height="60" as="geometry" />
        </mxCell>
        <mxCell id="EGHb8W3hOEWeccC0JwiV-3" value="Clientes" style="rounded=0;whiteSpace=wrap;html=1;" vertex="1" parent="1">
          <mxGeometry x="30" y="650" width="120" height="60" as="geometry" />
        </mxCell>
        <mxCell id="EGHb8W3hOEWeccC0JwiV-4" value="Empleados" style="rounded=0;whiteSpace=wrap;html=1;" vertex="1" parent="1">
          <mxGeometry x="220" y="650" width="120" height="60" as="geometry" />
        </mxCell>
        <mxCell id="EGHb8W3hOEWeccC0JwiV-6" value="" style="endArrow=none;html=1;rounded=0;" edge="1" parent="1">
          <mxGeometry width="50" height="50" relative="1" as="geometry">
            <mxPoint x="110" y="610" as="sourcePoint" />
            <mxPoint x="280" y="610" as="targetPoint" />
          </mxGeometry>
        </mxCell>
        <mxCell id="EGHb8W3hOEWeccC0JwiV-8" value="" style="endArrow=none;html=1;rounded=0;exitX=0.5;exitY=0;exitDx=0;exitDy=0;" edge="1" parent="1" source="EGHb8W3hOEWeccC0JwiV-3">
          <mxGeometry width="50" height="50" relative="1" as="geometry">
            <mxPoint x="40" y="670" as="sourcePoint" />
            <mxPoint x="110" y="610" as="targetPoint" />
          </mxGeometry>
        </mxCell>
        <mxCell id="EGHb8W3hOEWeccC0JwiV-9" value="" style="endArrow=none;html=1;rounded=0;exitX=0.7;exitY=-0.033;exitDx=0;exitDy=0;exitPerimeter=0;" edge="1" parent="1" source="EGHb8W3hOEWeccC0JwiV-4">
          <mxGeometry width="50" height="50" relative="1" as="geometry">
            <mxPoint x="220" y="640" as="sourcePoint" />
            <mxPoint x="280" y="610" as="targetPoint" />
          </mxGeometry>
        </mxCell>
        <mxCell id="EGHb8W3hOEWeccC0JwiV-10" value="T,E" style="text;html=1;align=center;verticalAlign=middle;resizable=0;points=[];autosize=1;strokeColor=none;fillColor=none;" vertex="1" parent="1">
          <mxGeometry x="170" y="602" width="40" height="30" as="geometry" />
        </mxCell>
        <mxCell id="EGHb8W3hOEWeccC0JwiV-11" value="" style="endArrow=none;html=1;rounded=0;entryX=0;entryY=0.75;entryDx=0;entryDy=0;exitX=1;exitY=0.5;exitDx=0;exitDy=0;" edge="1" parent="1" source="EGHb8W3hOEWeccC0JwiV-16" target="EGHb8W3hOEWeccC0JwiV-2">
          <mxGeometry width="50" height="50" relative="1" as="geometry">
            <mxPoint x="100" y="545" as="sourcePoint" />
            <mxPoint x="100" y="520" as="targetPoint" />
          </mxGeometry>
        </mxCell>
        <mxCell id="EGHb8W3hOEWeccC0JwiV-12" value="" style="endArrow=none;html=1;rounded=0;exitX=0;exitY=0;exitDx=0;exitDy=0;entryX=1;entryY=1;entryDx=0;entryDy=0;" edge="1" parent="1" source="EGHb8W3hOEWeccC0JwiV-2" target="EGHb8W3hOEWeccC0JwiV-18">
          <mxGeometry width="50" height="50" relative="1" as="geometry">
            <mxPoint x="140" y="510" as="sourcePoint" />
            <mxPoint x="170" y="500" as="targetPoint" />
          </mxGeometry>
        </mxCell>
        <mxCell id="EGHb8W3hOEWeccC0JwiV-13" value="" style="endArrow=none;html=1;rounded=0;exitX=0.25;exitY=0;exitDx=0;exitDy=0;entryX=0.5;entryY=1;entryDx=0;entryDy=0;" edge="1" parent="1" source="EGHb8W3hOEWeccC0JwiV-2" target="EGHb8W3hOEWeccC0JwiV-19">
          <mxGeometry width="50" height="50" relative="1" as="geometry">
            <mxPoint x="189.5" y="530" as="sourcePoint" />
            <mxPoint x="189.5" y="510" as="targetPoint" />
          </mxGeometry>
        </mxCell>
        <mxCell id="EGHb8W3hOEWeccC0JwiV-14" value="" style="endArrow=none;html=1;rounded=0;exitX=0.75;exitY=0;exitDx=0;exitDy=0;entryX=0.5;entryY=1;entryDx=0;entryDy=0;" edge="1" parent="1" source="EGHb8W3hOEWeccC0JwiV-2" target="EGHb8W3hOEWeccC0JwiV-193">
          <mxGeometry width="50" height="50" relative="1" as="geometry">
            <mxPoint x="220" y="510" as="sourcePoint" />
            <mxPoint x="232.92951637837223" y="495.5379527193377" as="targetPoint" />
            <Array as="points" />
            <mxPoint as="offset" />
          </mxGeometry>
        </mxCell>
        <mxCell id="EGHb8W3hOEWeccC0JwiV-16" value="" style="ellipse;whiteSpace=wrap;html=1;aspect=fixed;rotation=15;fillColor=#030303;" vertex="1" parent="1">
          <mxGeometry x="70" y="552" width="20" height="20" as="geometry" />
        </mxCell>
        <mxCell id="EGHb8W3hOEWeccC0JwiV-18" value="" style="ellipse;whiteSpace=wrap;html=1;aspect=fixed;rotation=-15;" vertex="1" parent="1">
          <mxGeometry x="80" y="510" width="20" height="20" as="geometry" />
        </mxCell>
        <mxCell id="EGHb8W3hOEWeccC0JwiV-19" value="" style="ellipse;whiteSpace=wrap;html=1;aspect=fixed;rotation=-55;" vertex="1" parent="1">
          <mxGeometry x="100" y="480" width="20" height="20" as="geometry" />
        </mxCell>
        <mxCell id="EGHb8W3hOEWeccC0JwiV-21" value="" style="endArrow=none;html=1;rounded=0;exitX=1;exitY=0;exitDx=0;exitDy=0;" edge="1" parent="1" source="EGHb8W3hOEWeccC0JwiV-4" target="EGHb8W3hOEWeccC0JwiV-20">
          <mxGeometry width="50" height="50" relative="1" as="geometry">
            <mxPoint x="350" y="580" as="sourcePoint" />
            <mxPoint x="270" y="510" as="targetPoint" />
          </mxGeometry>
        </mxCell>
        <mxCell id="EGHb8W3hOEWeccC0JwiV-20" value="" style="ellipse;whiteSpace=wrap;html=1;aspect=fixed;rotation=15;fillColor=#050505;" vertex="1" parent="1">
          <mxGeometry x="370" y="630" width="20" height="20" as="geometry" />
        </mxCell>
        <mxCell id="EGHb8W3hOEWeccC0JwiV-23" value="DNI 1,1" style="text;html=1;align=center;verticalAlign=middle;resizable=0;points=[];autosize=1;strokeColor=none;fillColor=none;" vertex="1" parent="1">
          <mxGeometry x="20" y="540" width="60" height="30" as="geometry" />
        </mxCell>
        <mxCell id="EGHb8W3hOEWeccC0JwiV-24" value="Nombre" style="text;html=1;align=center;verticalAlign=middle;resizable=0;points=[];autosize=1;strokeColor=none;fillColor=none;" vertex="1" parent="1">
          <mxGeometry x="10" y="500" width="70" height="30" as="geometry" />
        </mxCell>
        <mxCell id="EGHb8W3hOEWeccC0JwiV-25" value="Apellido" style="text;html=1;align=center;verticalAlign=middle;resizable=0;points=[];autosize=1;strokeColor=none;fillColor=none;" vertex="1" parent="1">
          <mxGeometry x="30" y="470" width="70" height="30" as="geometry" />
        </mxCell>
        <mxCell id="EGHb8W3hOEWeccC0JwiV-30" value="Legajo 1,1" style="text;html=1;align=center;verticalAlign=middle;resizable=0;points=[];autosize=1;strokeColor=none;fillColor=none;" vertex="1" parent="1">
          <mxGeometry x="380" y="620" width="80" height="30" as="geometry" />
        </mxCell>
        <mxCell id="EGHb8W3hOEWeccC0JwiV-31" value="Areas" style="rounded=0;whiteSpace=wrap;html=1;" vertex="1" parent="1">
          <mxGeometry x="740" y="650" width="120" height="60" as="geometry" />
        </mxCell>
        <mxCell id="EGHb8W3hOEWeccC0JwiV-32" value="" style="endArrow=none;html=1;rounded=0;exitX=1;exitY=0;exitDx=0;exitDy=0;entryX=0.5;entryY=1;entryDx=0;entryDy=0;" edge="1" parent="1" target="EGHb8W3hOEWeccC0JwiV-33" source="EGHb8W3hOEWeccC0JwiV-31">
          <mxGeometry width="50" height="50" relative="1" as="geometry">
            <mxPoint x="860" y="652" as="sourcePoint" />
            <mxPoint x="860" y="632" as="targetPoint" />
            <Array as="points" />
            <mxPoint as="offset" />
          </mxGeometry>
        </mxCell>
        <mxCell id="EGHb8W3hOEWeccC0JwiV-33" value="" style="ellipse;whiteSpace=wrap;html=1;aspect=fixed;rotation=15;fillColor=#1C1C1C;" vertex="1" parent="1">
          <mxGeometry x="860" y="602" width="20" height="20" as="geometry" />
        </mxCell>
        <mxCell id="EGHb8W3hOEWeccC0JwiV-34" value="codigo" style="text;html=1;align=center;verticalAlign=middle;resizable=0;points=[];autosize=1;strokeColor=none;fillColor=none;" vertex="1" parent="1">
          <mxGeometry x="855" y="572" width="60" height="30" as="geometry" />
        </mxCell>
        <mxCell id="EGHb8W3hOEWeccC0JwiV-35" value="" style="endArrow=none;html=1;rounded=0;exitX=0.592;exitY=0.05;exitDx=0;exitDy=0;entryX=0.5;entryY=1;entryDx=0;entryDy=0;exitPerimeter=0;" edge="1" parent="1" target="EGHb8W3hOEWeccC0JwiV-36" source="EGHb8W3hOEWeccC0JwiV-31">
          <mxGeometry width="50" height="50" relative="1" as="geometry">
            <mxPoint x="820" y="650" as="sourcePoint" />
            <mxPoint x="820" y="630" as="targetPoint" />
            <Array as="points" />
            <mxPoint as="offset" />
          </mxGeometry>
        </mxCell>
        <mxCell id="EGHb8W3hOEWeccC0JwiV-36" value="" style="ellipse;whiteSpace=wrap;html=1;aspect=fixed;rotation=-95;direction=south;" vertex="1" parent="1">
          <mxGeometry x="800" y="602" width="20" height="20" as="geometry" />
        </mxCell>
        <mxCell id="EGHb8W3hOEWeccC0JwiV-37" value="descripcion" style="text;html=1;align=center;verticalAlign=middle;resizable=0;points=[];autosize=1;strokeColor=none;fillColor=none;" vertex="1" parent="1">
          <mxGeometry x="770" y="572" width="80" height="30" as="geometry" />
        </mxCell>
        <mxCell id="EGHb8W3hOEWeccC0JwiV-38" value="" style="endArrow=none;html=1;rounded=0;exitX=0.25;exitY=0;exitDx=0;exitDy=0;entryX=0.5;entryY=1;entryDx=0;entryDy=0;" edge="1" parent="1" target="EGHb8W3hOEWeccC0JwiV-39" source="EGHb8W3hOEWeccC0JwiV-31">
          <mxGeometry width="50" height="50" relative="1" as="geometry">
            <mxPoint x="720" y="627" as="sourcePoint" />
            <mxPoint x="720" y="607" as="targetPoint" />
            <Array as="points" />
            <mxPoint as="offset" />
          </mxGeometry>
        </mxCell>
        <mxCell id="EGHb8W3hOEWeccC0JwiV-39" value="" style="ellipse;whiteSpace=wrap;html=1;aspect=fixed;rotation=-30;" vertex="1" parent="1">
          <mxGeometry x="740" y="602" width="20" height="20" as="geometry" />
        </mxCell>
        <mxCell id="EGHb8W3hOEWeccC0JwiV-40" value="teléfono" style="text;html=1;align=center;verticalAlign=middle;resizable=0;points=[];autosize=1;strokeColor=none;fillColor=none;" vertex="1" parent="1">
          <mxGeometry x="710" y="572" width="70" height="30" as="geometry" />
        </mxCell>
        <mxCell id="EGHb8W3hOEWeccC0JwiV-41" value="" style="endArrow=none;html=1;rounded=0;exitX=0;exitY=0;exitDx=0;exitDy=0;entryX=0.5;entryY=1;entryDx=0;entryDy=0;" edge="1" parent="1" target="EGHb8W3hOEWeccC0JwiV-42" source="EGHb8W3hOEWeccC0JwiV-31">
          <mxGeometry width="50" height="50" relative="1" as="geometry">
            <mxPoint x="650" y="627" as="sourcePoint" />
            <mxPoint x="650" y="607" as="targetPoint" />
            <Array as="points" />
            <mxPoint as="offset" />
          </mxGeometry>
        </mxCell>
        <mxCell id="EGHb8W3hOEWeccC0JwiV-42" value="" style="ellipse;whiteSpace=wrap;html=1;aspect=fixed;rotation=-50;" vertex="1" parent="1">
          <mxGeometry x="690" y="617" width="20" height="20" as="geometry" />
        </mxCell>
        <mxCell id="EGHb8W3hOEWeccC0JwiV-43" value="Ubicacion" style="text;html=1;align=center;verticalAlign=middle;resizable=0;points=[];autosize=1;strokeColor=none;fillColor=none;" vertex="1" parent="1">
          <mxGeometry x="650" y="592" width="80" height="30" as="geometry" />
        </mxCell>
        <mxCell id="EGHb8W3hOEWeccC0JwiV-47" value="" style="endArrow=none;html=1;rounded=0;exitX=0;exitY=0.5;exitDx=0;exitDy=0;entryX=0.821;entryY=0.883;entryDx=0;entryDy=0;fontStyle=1;entryPerimeter=0;" edge="1" parent="1" target="EGHb8W3hOEWeccC0JwiV-48" source="EGHb8W3hOEWeccC0JwiV-3">
          <mxGeometry width="50" height="50" relative="1" as="geometry">
            <mxPoint x="-135" y="740" as="sourcePoint" />
            <mxPoint x="-135" y="720" as="targetPoint" />
            <Array as="points" />
            <mxPoint as="offset" />
          </mxGeometry>
        </mxCell>
        <mxCell id="EGHb8W3hOEWeccC0JwiV-48" value="" style="ellipse;whiteSpace=wrap;html=1;aspect=fixed;rotation=-50;fontStyle=1" vertex="1" parent="1">
          <mxGeometry x="-40" y="643" width="20" height="20" as="geometry" />
        </mxCell>
        <mxCell id="EGHb8W3hOEWeccC0JwiV-49" value="Nacionalidad 1,N" style="text;html=1;align=center;verticalAlign=middle;resizable=0;points=[];autosize=1;strokeColor=none;fillColor=none;fontStyle=1" vertex="1" parent="1">
          <mxGeometry x="-160" y="638" width="120" height="30" as="geometry" />
        </mxCell>
        <mxCell id="EGHb8W3hOEWeccC0JwiV-50" value="" style="endArrow=none;html=1;rounded=0;exitX=0;exitY=0;exitDx=0;exitDy=0;entryX=0.5;entryY=1;entryDx=0;entryDy=0;" edge="1" parent="1" target="EGHb8W3hOEWeccC0JwiV-51" source="EGHb8W3hOEWeccC0JwiV-3">
          <mxGeometry width="50" height="50" relative="1" as="geometry">
            <mxPoint x="-80" y="750" as="sourcePoint" />
            <mxPoint x="-80" y="730" as="targetPoint" />
            <Array as="points" />
            <mxPoint as="offset" />
          </mxGeometry>
        </mxCell>
        <mxCell id="EGHb8W3hOEWeccC0JwiV-51" value="" style="ellipse;whiteSpace=wrap;html=1;aspect=fixed;rotation=-55;" vertex="1" parent="1">
          <mxGeometry x="-10" y="595" width="20" height="20" as="geometry" />
        </mxCell>
        <mxCell id="EGHb8W3hOEWeccC0JwiV-52" value="Sexo 1,1" style="text;html=1;align=center;verticalAlign=middle;resizable=0;points=[];autosize=1;strokeColor=none;fillColor=none;" vertex="1" parent="1">
          <mxGeometry x="-70" y="585" width="70" height="30" as="geometry" />
        </mxCell>
        <mxCell id="EGHb8W3hOEWeccC0JwiV-57" value="" style="endArrow=none;html=1;rounded=0;exitX=0;exitY=0.75;exitDx=0;exitDy=0;entryX=0.5;entryY=1;entryDx=0;entryDy=0;" edge="1" parent="1" target="EGHb8W3hOEWeccC0JwiV-58" source="EGHb8W3hOEWeccC0JwiV-3">
          <mxGeometry width="50" height="50" relative="1" as="geometry">
            <mxPoint x="20" y="820" as="sourcePoint" />
            <mxPoint x="20" y="800" as="targetPoint" />
            <Array as="points" />
            <mxPoint as="offset" />
          </mxGeometry>
        </mxCell>
        <mxCell id="EGHb8W3hOEWeccC0JwiV-58" value="" style="ellipse;whiteSpace=wrap;html=1;aspect=fixed;rotation=-60;fillColor=#050505;" vertex="1" parent="1">
          <mxGeometry x="-45" y="698" width="20" height="20" as="geometry" />
        </mxCell>
        <mxCell id="EGHb8W3hOEWeccC0JwiV-59" value="Nro. pasaporte 0,1" style="text;html=1;align=center;verticalAlign=middle;resizable=0;points=[];autosize=1;strokeColor=none;fillColor=none;" vertex="1" parent="1">
          <mxGeometry x="-170" y="693" width="120" height="30" as="geometry" />
        </mxCell>
        <mxCell id="EGHb8W3hOEWeccC0JwiV-60" value="" style="endArrow=none;html=1;rounded=0;entryX=0;entryY=0;entryDx=0;entryDy=0;exitX=0;exitY=1;exitDx=0;exitDy=0;" edge="1" parent="1" target="EGHb8W3hOEWeccC0JwiV-61" source="EGHb8W3hOEWeccC0JwiV-3">
          <mxGeometry width="50" height="50" relative="1" as="geometry">
            <mxPoint x="50" y="803" as="sourcePoint" />
            <mxPoint x="50" y="783" as="targetPoint" />
            <Array as="points" />
            <mxPoint as="offset" />
          </mxGeometry>
        </mxCell>
        <mxCell id="EGHb8W3hOEWeccC0JwiV-61" value="" style="ellipse;whiteSpace=wrap;html=1;aspect=fixed;rotation=90;" vertex="1" parent="1">
          <mxGeometry x="-40" y="740" width="20" height="20" as="geometry" />
        </mxCell>
        <mxCell id="EGHb8W3hOEWeccC0JwiV-62" value="Nro. inmuebles 1,N" style="text;html=1;align=center;verticalAlign=middle;resizable=0;points=[];autosize=1;strokeColor=none;fillColor=none;" vertex="1" parent="1">
          <mxGeometry x="-175" y="735" width="130" height="30" as="geometry" />
        </mxCell>
        <mxCell id="EGHb8W3hOEWeccC0JwiV-64" value="Inmuebles" style="rounded=0;whiteSpace=wrap;html=1;" vertex="1" parent="1">
          <mxGeometry x="245" y="1330" width="120" height="60" as="geometry" />
        </mxCell>
        <mxCell id="EGHb8W3hOEWeccC0JwiV-70" value="" style="endArrow=none;html=1;rounded=0;exitX=0.1;exitY=0.983;exitDx=0;exitDy=0;entryX=0.5;entryY=1;entryDx=0;entryDy=0;exitPerimeter=0;" edge="1" parent="1" target="EGHb8W3hOEWeccC0JwiV-71" source="EGHb8W3hOEWeccC0JwiV-64">
          <mxGeometry width="50" height="50" relative="1" as="geometry">
            <mxPoint x="445" y="1430" as="sourcePoint" />
            <mxPoint x="445" y="1410" as="targetPoint" />
            <Array as="points" />
            <mxPoint as="offset" />
          </mxGeometry>
        </mxCell>
        <mxCell id="EGHb8W3hOEWeccC0JwiV-71" value="" style="ellipse;whiteSpace=wrap;html=1;aspect=fixed;rotation=15;" vertex="1" parent="1">
          <mxGeometry x="255" y="1440" width="20" height="20" as="geometry" />
        </mxCell>
        <mxCell id="EGHb8W3hOEWeccC0JwiV-79" value="" style="endArrow=none;html=1;rounded=0;exitX=0;exitY=0;exitDx=0;exitDy=0;" edge="1" parent="1" source="EGHb8W3hOEWeccC0JwiV-64">
          <mxGeometry width="50" height="50" relative="1" as="geometry">
            <mxPoint x="225" y="1320" as="sourcePoint" />
            <mxPoint x="190" y="1290" as="targetPoint" />
            <Array as="points" />
            <mxPoint as="offset" />
          </mxGeometry>
        </mxCell>
        <mxCell id="EGHb8W3hOEWeccC0JwiV-85" value="" style="endArrow=none;html=1;rounded=0;exitX=0.008;exitY=0.133;exitDx=0;exitDy=0;entryX=0.5;entryY=1;entryDx=0;entryDy=0;exitPerimeter=0;" edge="1" parent="1" target="EGHb8W3hOEWeccC0JwiV-86" source="EGHb8W3hOEWeccC0JwiV-64">
          <mxGeometry width="50" height="50" relative="1" as="geometry">
            <mxPoint x="140" y="1450" as="sourcePoint" />
            <mxPoint x="140" y="1430" as="targetPoint" />
            <Array as="points" />
            <mxPoint as="offset" />
          </mxGeometry>
        </mxCell>
        <mxCell id="EGHb8W3hOEWeccC0JwiV-86" value="" style="ellipse;whiteSpace=wrap;html=1;aspect=fixed;rotation=-75;fillColor=#212121;" vertex="1" parent="1">
          <mxGeometry x="165" y="1310" width="20" height="20" as="geometry" />
        </mxCell>
        <mxCell id="EGHb8W3hOEWeccC0JwiV-88" value="" style="endArrow=none;html=1;rounded=0;exitX=0;exitY=0.25;exitDx=0;exitDy=0;entryX=1;entryY=1;entryDx=0;entryDy=0;" edge="1" parent="1" target="EGHb8W3hOEWeccC0JwiV-89" source="EGHb8W3hOEWeccC0JwiV-64">
          <mxGeometry width="50" height="50" relative="1" as="geometry">
            <mxPoint x="245" y="1500" as="sourcePoint" />
            <mxPoint x="245" y="1480" as="targetPoint" />
            <Array as="points" />
            <mxPoint as="offset" />
          </mxGeometry>
        </mxCell>
        <mxCell id="EGHb8W3hOEWeccC0JwiV-89" value="" style="ellipse;whiteSpace=wrap;html=1;aspect=fixed;rotation=-65;" vertex="1" parent="1">
          <mxGeometry x="165" y="1350" width="20" height="20" as="geometry" />
        </mxCell>
        <mxCell id="EGHb8W3hOEWeccC0JwiV-91" value="" style="endArrow=none;html=1;rounded=0;exitX=0;exitY=0.5;exitDx=0;exitDy=0;entryX=1;entryY=0.5;entryDx=0;entryDy=0;" edge="1" parent="1" target="EGHb8W3hOEWeccC0JwiV-92" source="EGHb8W3hOEWeccC0JwiV-64">
          <mxGeometry width="50" height="50" relative="1" as="geometry">
            <mxPoint x="305" y="1510" as="sourcePoint" />
            <mxPoint x="195" y="1390" as="targetPoint" />
            <Array as="points" />
            <mxPoint as="offset" />
          </mxGeometry>
        </mxCell>
        <mxCell id="EGHb8W3hOEWeccC0JwiV-92" value="" style="ellipse;whiteSpace=wrap;html=1;aspect=fixed;rotation=-40;" vertex="1" parent="1">
          <mxGeometry x="165" y="1390" width="20" height="20" as="geometry" />
        </mxCell>
        <mxCell id="EGHb8W3hOEWeccC0JwiV-94" value="" style="endArrow=none;html=1;rounded=0;exitX=0;exitY=1;exitDx=0;exitDy=0;entryX=1;entryY=0;entryDx=0;entryDy=0;" edge="1" parent="1" target="EGHb8W3hOEWeccC0JwiV-95" source="EGHb8W3hOEWeccC0JwiV-64">
          <mxGeometry width="50" height="50" relative="1" as="geometry">
            <mxPoint x="405" y="1530" as="sourcePoint" />
            <mxPoint x="405" y="1510" as="targetPoint" />
            <Array as="points" />
            <mxPoint as="offset" />
          </mxGeometry>
        </mxCell>
        <mxCell id="EGHb8W3hOEWeccC0JwiV-95" value="" style="ellipse;whiteSpace=wrap;html=1;aspect=fixed;rotation=15;" vertex="1" parent="1">
          <mxGeometry x="185" y="1430" width="20" height="20" as="geometry" />
        </mxCell>
        <mxCell id="EGHb8W3hOEWeccC0JwiV-102" value="Codigo de inmueble" style="text;html=1;align=center;verticalAlign=middle;resizable=0;points=[];autosize=1;strokeColor=none;fillColor=none;" vertex="1" parent="1">
          <mxGeometry x="30" y="1305" width="130" height="30" as="geometry" />
        </mxCell>
        <mxCell id="EGHb8W3hOEWeccC0JwiV-103" value="Ambientes" style="text;html=1;align=center;verticalAlign=middle;resizable=0;points=[];autosize=1;strokeColor=none;fillColor=none;" vertex="1" parent="1">
          <mxGeometry x="55" y="1345" width="80" height="30" as="geometry" />
        </mxCell>
        <mxCell id="EGHb8W3hOEWeccC0JwiV-104" value="Balcon" style="text;html=1;align=center;verticalAlign=middle;resizable=0;points=[];autosize=1;strokeColor=none;fillColor=none;" vertex="1" parent="1">
          <mxGeometry x="75" y="1388" width="60" height="30" as="geometry" />
        </mxCell>
        <mxCell id="EGHb8W3hOEWeccC0JwiV-105" value="Lavadero" style="text;html=1;align=center;verticalAlign=middle;resizable=0;points=[];autosize=1;strokeColor=none;fillColor=none;" vertex="1" parent="1">
          <mxGeometry x="90" y="1425" width="70" height="30" as="geometry" />
        </mxCell>
        <mxCell id="EGHb8W3hOEWeccC0JwiV-106" value="Baños" style="text;html=1;align=center;verticalAlign=middle;resizable=0;points=[];autosize=1;strokeColor=none;fillColor=none;" vertex="1" parent="1">
          <mxGeometry x="235" y="1458" width="60" height="30" as="geometry" />
        </mxCell>
        <mxCell id="EGHb8W3hOEWeccC0JwiV-109" value="Alquieres" style="rounded=0;whiteSpace=wrap;html=1;" vertex="1" parent="1">
          <mxGeometry x="85" y="970" width="120" height="60" as="geometry" />
        </mxCell>
        <mxCell id="EGHb8W3hOEWeccC0JwiV-110" value="Ventas" style="whiteSpace=wrap;html=1;" vertex="1" parent="1">
          <mxGeometry x="430" y="970" width="120" height="60" as="geometry" />
        </mxCell>
        <mxCell id="EGHb8W3hOEWeccC0JwiV-111" value="es" style="rhombus;whiteSpace=wrap;html=1;" vertex="1" parent="1">
          <mxGeometry x="220" y="1110" width="50" height="50" as="geometry" />
        </mxCell>
        <mxCell id="EGHb8W3hOEWeccC0JwiV-113" value="" style="endArrow=none;html=1;rounded=0;entryX=0.5;entryY=1;entryDx=0;entryDy=0;exitX=0.5;exitY=0;exitDx=0;exitDy=0;edgeStyle=orthogonalEdgeStyle;curved=1;" edge="1" parent="1" source="EGHb8W3hOEWeccC0JwiV-111" target="EGHb8W3hOEWeccC0JwiV-109">
          <mxGeometry width="50" height="50" relative="1" as="geometry">
            <mxPoint x="20" y="1140" as="sourcePoint" />
            <mxPoint x="70" y="1090" as="targetPoint" />
          </mxGeometry>
        </mxCell>
        <mxCell id="EGHb8W3hOEWeccC0JwiV-115" value="" style="endArrow=none;html=1;rounded=0;entryX=0.5;entryY=1;entryDx=0;entryDy=0;exitX=0.5;exitY=0;exitDx=0;exitDy=0;edgeStyle=orthogonalEdgeStyle;curved=1;" edge="1" parent="1" source="EGHb8W3hOEWeccC0JwiV-64" target="EGHb8W3hOEWeccC0JwiV-111">
          <mxGeometry width="50" height="50" relative="1" as="geometry">
            <mxPoint x="320" y="1299.5" as="sourcePoint" />
            <mxPoint x="250" y="1210.5" as="targetPoint" />
            <Array as="points">
              <mxPoint x="305" y="1240" />
              <mxPoint x="245" y="1240" />
            </Array>
          </mxGeometry>
        </mxCell>
        <mxCell id="EGHb8W3hOEWeccC0JwiV-117" value="es 2" style="rhombus;whiteSpace=wrap;html=1;" vertex="1" parent="1">
          <mxGeometry x="430" y="1123.5" width="50" height="50" as="geometry" />
        </mxCell>
        <mxCell id="EGHb8W3hOEWeccC0JwiV-118" value="" style="endArrow=none;html=1;rounded=0;entryX=0.5;entryY=1;entryDx=0;entryDy=0;exitX=0.5;exitY=0;exitDx=0;exitDy=0;edgeStyle=orthogonalEdgeStyle;curved=1;" edge="1" parent="1" source="EGHb8W3hOEWeccC0JwiV-117" target="EGHb8W3hOEWeccC0JwiV-110">
          <mxGeometry width="50" height="50" relative="1" as="geometry">
            <mxPoint x="175" y="1144.5" as="sourcePoint" />
            <mxPoint x="300" y="1034.5" as="targetPoint" />
          </mxGeometry>
        </mxCell>
        <mxCell id="EGHb8W3hOEWeccC0JwiV-119" value="" style="endArrow=none;html=1;rounded=0;entryX=0.5;entryY=1;entryDx=0;entryDy=0;exitX=0.75;exitY=0;exitDx=0;exitDy=0;edgeStyle=orthogonalEdgeStyle;curved=1;" edge="1" parent="1" target="EGHb8W3hOEWeccC0JwiV-117" source="EGHb8W3hOEWeccC0JwiV-64">
          <mxGeometry width="50" height="50" relative="1" as="geometry">
            <mxPoint x="460" y="1334.5" as="sourcePoint" />
            <mxPoint x="405" y="1215" as="targetPoint" />
          </mxGeometry>
        </mxCell>
        <mxCell id="EGHb8W3hOEWeccC0JwiV-120" value="0,N" style="text;html=1;align=center;verticalAlign=middle;resizable=0;points=[];autosize=1;strokeColor=none;fillColor=none;" vertex="1" parent="1">
          <mxGeometry x="330" y="1305" width="40" height="30" as="geometry" />
        </mxCell>
        <mxCell id="EGHb8W3hOEWeccC0JwiV-121" value="1,1" style="text;html=1;align=center;verticalAlign=middle;resizable=0;points=[];autosize=1;strokeColor=none;fillColor=none;" vertex="1" parent="1">
          <mxGeometry x="490" y="1038" width="40" height="30" as="geometry" />
        </mxCell>
        <mxCell id="EGHb8W3hOEWeccC0JwiV-122" value="0,N" style="text;html=1;align=center;verticalAlign=middle;resizable=0;points=[];autosize=1;strokeColor=none;fillColor=none;" vertex="1" parent="1">
          <mxGeometry x="270" y="1300" width="40" height="30" as="geometry" />
        </mxCell>
        <mxCell id="EGHb8W3hOEWeccC0JwiV-123" value="1,1" style="text;html=1;align=center;verticalAlign=middle;resizable=0;points=[];autosize=1;strokeColor=none;fillColor=none;" vertex="1" parent="1">
          <mxGeometry x="160" y="1038" width="40" height="30" as="geometry" />
        </mxCell>
        <mxCell id="EGHb8W3hOEWeccC0JwiV-128" value="vende" style="rhombus;whiteSpace=wrap;html=1;" vertex="1" parent="1">
          <mxGeometry x="510" y="830" width="50" height="50" as="geometry" />
        </mxCell>
        <mxCell id="EGHb8W3hOEWeccC0JwiV-129" value="" style="endArrow=none;html=1;rounded=0;entryX=0.799;entryY=0.997;entryDx=0;entryDy=0;exitX=0.5;exitY=0;exitDx=0;exitDy=0;edgeStyle=orthogonalEdgeStyle;curved=1;entryPerimeter=0;" edge="1" parent="1" source="EGHb8W3hOEWeccC0JwiV-128" target="EGHb8W3hOEWeccC0JwiV-4">
          <mxGeometry width="50" height="50" relative="1" as="geometry">
            <mxPoint x="276.64" y="864.86" as="sourcePoint" />
            <mxPoint x="380.0000000000001" y="722.9999999999999" as="targetPoint" />
          </mxGeometry>
        </mxCell>
        <mxCell id="EGHb8W3hOEWeccC0JwiV-130" value="" style="endArrow=none;html=1;rounded=0;entryX=0.5;entryY=1;entryDx=0;entryDy=0;exitX=0.5;exitY=0;exitDx=0;exitDy=0;edgeStyle=orthogonalEdgeStyle;curved=1;" edge="1" parent="1" target="EGHb8W3hOEWeccC0JwiV-128" source="EGHb8W3hOEWeccC0JwiV-110">
          <mxGeometry width="50" height="50" relative="1" as="geometry">
            <mxPoint x="561.64" y="1054.86" as="sourcePoint" />
            <mxPoint x="506.64" y="935.36" as="targetPoint" />
          </mxGeometry>
        </mxCell>
        <mxCell id="EGHb8W3hOEWeccC0JwiV-131" value="comprar" style="rhombus;whiteSpace=wrap;html=1;" vertex="1" parent="1">
          <mxGeometry x="310" y="830" width="50" height="50" as="geometry" />
        </mxCell>
        <mxCell id="EGHb8W3hOEWeccC0JwiV-132" value="" style="endArrow=none;html=1;rounded=0;entryX=0.75;entryY=1;entryDx=0;entryDy=0;exitX=0.5;exitY=0;exitDx=0;exitDy=0;edgeStyle=orthogonalEdgeStyle;curved=1;" edge="1" parent="1" source="EGHb8W3hOEWeccC0JwiV-131" target="EGHb8W3hOEWeccC0JwiV-3">
          <mxGeometry width="50" height="50" relative="1" as="geometry">
            <mxPoint x="172.52" y="969.5" as="sourcePoint" />
            <mxPoint x="290" y="746.5" as="targetPoint" />
          </mxGeometry>
        </mxCell>
        <mxCell id="EGHb8W3hOEWeccC0JwiV-133" value="" style="endArrow=none;html=1;rounded=0;entryX=0.5;entryY=1;entryDx=0;entryDy=0;exitX=0.306;exitY=-0.017;exitDx=0;exitDy=0;edgeStyle=orthogonalEdgeStyle;curved=1;exitPerimeter=0;" edge="1" parent="1" target="EGHb8W3hOEWeccC0JwiV-131" source="EGHb8W3hOEWeccC0JwiV-110">
          <mxGeometry width="50" height="50" relative="1" as="geometry">
            <mxPoint x="457.52" y="1159.5" as="sourcePoint" />
            <mxPoint x="402.52" y="1040" as="targetPoint" />
          </mxGeometry>
        </mxCell>
        <mxCell id="EGHb8W3hOEWeccC0JwiV-135" value="alquila" style="rhombus;whiteSpace=wrap;html=1;" vertex="1" parent="1">
          <mxGeometry x="-30" y="840" width="50" height="50" as="geometry" />
        </mxCell>
        <mxCell id="EGHb8W3hOEWeccC0JwiV-136" value="" style="endArrow=none;html=1;rounded=0;entryX=0.2;entryY=1.017;entryDx=0;entryDy=0;edgeStyle=orthogonalEdgeStyle;curved=1;entryPerimeter=0;exitX=0.5;exitY=0;exitDx=0;exitDy=0;" edge="1" parent="1" source="EGHb8W3hOEWeccC0JwiV-135" target="EGHb8W3hOEWeccC0JwiV-3">
          <mxGeometry width="50" height="50" relative="1" as="geometry">
            <mxPoint x="80" y="800" as="sourcePoint" />
            <mxPoint x="35" y="740" as="targetPoint" />
            <Array as="points">
              <mxPoint x="-5" y="830" />
              <mxPoint x="5" y="830" />
              <mxPoint x="5" y="800" />
              <mxPoint x="15" y="800" />
              <mxPoint x="15" y="820" />
              <mxPoint x="40" y="820" />
              <mxPoint x="40" y="790" />
              <mxPoint x="100" y="790" />
              <mxPoint x="100" y="760" />
              <mxPoint x="60" y="760" />
              <mxPoint x="60" y="711" />
            </Array>
          </mxGeometry>
        </mxCell>
        <mxCell id="EGHb8W3hOEWeccC0JwiV-137" value="" style="endArrow=none;html=1;rounded=0;entryX=0.5;entryY=1;entryDx=0;entryDy=0;exitX=0.097;exitY=0.009;exitDx=0;exitDy=0;edgeStyle=orthogonalEdgeStyle;curved=1;exitPerimeter=0;" edge="1" parent="1" target="EGHb8W3hOEWeccC0JwiV-135" source="EGHb8W3hOEWeccC0JwiV-109">
          <mxGeometry width="50" height="50" relative="1" as="geometry">
            <mxPoint x="195" y="1040" as="sourcePoint" />
            <mxPoint x="140" y="920.5" as="targetPoint" />
            <Array as="points">
              <mxPoint x="100" y="971" />
              <mxPoint x="100" y="910" />
              <mxPoint x="50" y="910" />
              <mxPoint x="50" y="890" />
              <mxPoint x="30" y="890" />
              <mxPoint x="30" y="920" />
              <mxPoint x="-5" y="920" />
            </Array>
          </mxGeometry>
        </mxCell>
        <mxCell id="EGHb8W3hOEWeccC0JwiV-138" value="alquila" style="rhombus;whiteSpace=wrap;html=1;" vertex="1" parent="1">
          <mxGeometry x="135" y="830" width="50" height="50" as="geometry" />
        </mxCell>
        <mxCell id="EGHb8W3hOEWeccC0JwiV-139" value="" style="endArrow=none;html=1;rounded=0;exitX=0.5;exitY=0;exitDx=0;exitDy=0;edgeStyle=orthogonalEdgeStyle;curved=1;entryX=0.5;entryY=1;entryDx=0;entryDy=0;" edge="1" parent="1" source="EGHb8W3hOEWeccC0JwiV-138" target="EGHb8W3hOEWeccC0JwiV-4">
          <mxGeometry width="50" height="50" relative="1" as="geometry">
            <mxPoint x="16.639999999999986" y="836.84" as="sourcePoint" />
            <mxPoint x="46.039999999999964" y="680" as="targetPoint" />
            <Array as="points">
              <mxPoint x="165" y="790" />
              <mxPoint x="280" y="790" />
            </Array>
          </mxGeometry>
        </mxCell>
        <mxCell id="EGHb8W3hOEWeccC0JwiV-140" value="" style="endArrow=none;html=1;rounded=0;entryX=0.5;entryY=1;entryDx=0;entryDy=0;edgeStyle=orthogonalEdgeStyle;curved=1;" edge="1" parent="1" target="EGHb8W3hOEWeccC0JwiV-138">
          <mxGeometry width="50" height="50" relative="1" as="geometry">
            <mxPoint x="160" y="970" as="sourcePoint" />
            <mxPoint x="246.64" y="907.34" as="targetPoint" />
            <Array as="points">
              <mxPoint x="153" y="970" />
              <mxPoint x="170" y="970" />
              <mxPoint x="170" y="930" />
              <mxPoint x="200" y="930" />
              <mxPoint x="200" y="890" />
              <mxPoint x="165" y="890" />
            </Array>
          </mxGeometry>
        </mxCell>
        <mxCell id="EGHb8W3hOEWeccC0JwiV-143" value="0,N" style="text;html=1;align=center;verticalAlign=middle;resizable=0;points=[];autosize=1;strokeColor=none;fillColor=none;" vertex="1" parent="1">
          <mxGeometry x="240" y="718" width="40" height="30" as="geometry" />
        </mxCell>
        <mxCell id="EGHb8W3hOEWeccC0JwiV-144" value="0,N" style="text;html=1;align=center;verticalAlign=middle;resizable=0;points=[];autosize=1;strokeColor=none;fillColor=none;" vertex="1" parent="1">
          <mxGeometry x="320" y="718" width="40" height="30" as="geometry" />
        </mxCell>
        <mxCell id="EGHb8W3hOEWeccC0JwiV-145" value="0,N" style="text;html=1;align=center;verticalAlign=middle;resizable=0;points=[];autosize=1;strokeColor=none;fillColor=none;" vertex="1" parent="1">
          <mxGeometry x="55" y="718" width="40" height="30" as="geometry" />
        </mxCell>
        <mxCell id="EGHb8W3hOEWeccC0JwiV-147" value="0,N" style="text;html=1;align=center;verticalAlign=middle;resizable=0;points=[];autosize=1;strokeColor=none;fillColor=none;" vertex="1" parent="1">
          <mxGeometry x="115" y="765" width="40" height="30" as="geometry" />
        </mxCell>
        <mxCell id="EGHb8W3hOEWeccC0JwiV-148" value="1,1" style="text;html=1;align=center;verticalAlign=middle;resizable=0;points=[];autosize=1;strokeColor=none;fillColor=none;" vertex="1" parent="1">
          <mxGeometry x="70" y="938" width="40" height="30" as="geometry" />
        </mxCell>
        <mxCell id="EGHb8W3hOEWeccC0JwiV-149" value="1,1" style="text;html=1;align=center;verticalAlign=middle;resizable=0;points=[];autosize=1;strokeColor=none;fillColor=none;" vertex="1" parent="1">
          <mxGeometry x="165" y="940" width="40" height="30" as="geometry" />
        </mxCell>
        <mxCell id="EGHb8W3hOEWeccC0JwiV-151" value="1,1" style="text;html=1;align=center;verticalAlign=middle;resizable=0;points=[];autosize=1;strokeColor=none;fillColor=none;" vertex="1" parent="1">
          <mxGeometry x="430" y="938" width="40" height="30" as="geometry" />
        </mxCell>
        <mxCell id="EGHb8W3hOEWeccC0JwiV-152" value="1,1" style="text;html=1;align=center;verticalAlign=middle;resizable=0;points=[];autosize=1;strokeColor=none;fillColor=none;" vertex="1" parent="1">
          <mxGeometry x="485" y="946" width="40" height="30" as="geometry" />
        </mxCell>
        <mxCell id="EGHb8W3hOEWeccC0JwiV-153" value="Tipos" style="rounded=0;whiteSpace=wrap;html=1;" vertex="1" parent="1">
          <mxGeometry x="600" y="1328" width="120" height="60" as="geometry" />
        </mxCell>
        <mxCell id="EGHb8W3hOEWeccC0JwiV-154" value="Tiene" style="rhombus;whiteSpace=wrap;html=1;" vertex="1" parent="1">
          <mxGeometry x="480" y="1335" width="50" height="49" as="geometry" />
        </mxCell>
        <mxCell id="EGHb8W3hOEWeccC0JwiV-155" value="" style="endArrow=none;html=1;rounded=0;entryX=0;entryY=0.5;entryDx=0;entryDy=0;exitX=1;exitY=0.5;exitDx=0;exitDy=0;" edge="1" parent="1" source="EGHb8W3hOEWeccC0JwiV-64" target="EGHb8W3hOEWeccC0JwiV-154">
          <mxGeometry width="50" height="50" relative="1" as="geometry">
            <mxPoint x="460" y="1400" as="sourcePoint" />
            <mxPoint x="510" y="1350" as="targetPoint" />
          </mxGeometry>
        </mxCell>
        <mxCell id="EGHb8W3hOEWeccC0JwiV-156" value="" style="endArrow=none;html=1;rounded=0;entryX=0;entryY=0.5;entryDx=0;entryDy=0;exitX=1;exitY=0.5;exitDx=0;exitDy=0;" edge="1" parent="1" source="EGHb8W3hOEWeccC0JwiV-154" target="EGHb8W3hOEWeccC0JwiV-153">
          <mxGeometry width="50" height="50" relative="1" as="geometry">
            <mxPoint x="540" y="1440" as="sourcePoint" />
            <mxPoint x="590" y="1390" as="targetPoint" />
          </mxGeometry>
        </mxCell>
        <mxCell id="EGHb8W3hOEWeccC0JwiV-157" value="" style="endArrow=none;html=1;rounded=0;exitX=0.75;exitY=0;exitDx=0;exitDy=0;entryX=0.5;entryY=1;entryDx=0;entryDy=0;" edge="1" parent="1" source="EGHb8W3hOEWeccC0JwiV-153" target="EGHb8W3hOEWeccC0JwiV-158">
          <mxGeometry width="50" height="50" relative="1" as="geometry">
            <mxPoint x="660" y="1330" as="sourcePoint" />
            <mxPoint x="690" y="1300" as="targetPoint" />
          </mxGeometry>
        </mxCell>
        <mxCell id="EGHb8W3hOEWeccC0JwiV-158" value="" style="ellipse;whiteSpace=wrap;html=1;aspect=fixed;fillColor=#191919;" vertex="1" parent="1">
          <mxGeometry x="680" y="1285" width="20" height="20" as="geometry" />
        </mxCell>
        <mxCell id="EGHb8W3hOEWeccC0JwiV-160" value="Nombre" style="text;html=1;align=center;verticalAlign=middle;resizable=0;points=[];autosize=1;strokeColor=none;fillColor=none;" vertex="1" parent="1">
          <mxGeometry x="655" y="1255" width="70" height="30" as="geometry" />
        </mxCell>
        <mxCell id="EGHb8W3hOEWeccC0JwiV-161" value="1,N" style="text;html=1;align=center;verticalAlign=middle;resizable=0;points=[];autosize=1;strokeColor=none;fillColor=none;" vertex="1" parent="1">
          <mxGeometry x="550" y="1328" width="40" height="30" as="geometry" />
        </mxCell>
        <mxCell id="EGHb8W3hOEWeccC0JwiV-162" value="1,1" style="text;html=1;align=center;verticalAlign=middle;resizable=0;points=[];autosize=1;strokeColor=none;fillColor=none;" vertex="1" parent="1">
          <mxGeometry x="365" y="1335" width="40" height="30" as="geometry" />
        </mxCell>
        <mxCell id="EGHb8W3hOEWeccC0JwiV-163" value="Direccion" style="ellipse;whiteSpace=wrap;html=1;" vertex="1" parent="1">
          <mxGeometry x="150" y="1260" width="60" height="30" as="geometry" />
        </mxCell>
        <mxCell id="EGHb8W3hOEWeccC0JwiV-166" value="Trabaja" style="rhombus;whiteSpace=wrap;html=1;" vertex="1" parent="1">
          <mxGeometry x="525" y="656" width="65" height="48" as="geometry" />
        </mxCell>
        <mxCell id="EGHb8W3hOEWeccC0JwiV-167" value="" style="endArrow=none;html=1;rounded=0;entryX=0;entryY=0.5;entryDx=0;entryDy=0;exitX=1;exitY=0.5;exitDx=0;exitDy=0;" edge="1" parent="1" source="EGHb8W3hOEWeccC0JwiV-4" target="EGHb8W3hOEWeccC0JwiV-166">
          <mxGeometry width="50" height="50" relative="1" as="geometry">
            <mxPoint x="470" y="710" as="sourcePoint" />
            <mxPoint x="520" y="660" as="targetPoint" />
          </mxGeometry>
        </mxCell>
        <mxCell id="EGHb8W3hOEWeccC0JwiV-168" value="" style="endArrow=none;html=1;rounded=0;entryX=0;entryY=0.5;entryDx=0;entryDy=0;exitX=1;exitY=0.5;exitDx=0;exitDy=0;" edge="1" parent="1" source="EGHb8W3hOEWeccC0JwiV-166" target="EGHb8W3hOEWeccC0JwiV-31">
          <mxGeometry width="50" height="50" relative="1" as="geometry">
            <mxPoint x="660" y="760" as="sourcePoint" />
            <mxPoint x="710" y="710" as="targetPoint" />
          </mxGeometry>
        </mxCell>
        <mxCell id="EGHb8W3hOEWeccC0JwiV-169" value="1,N" style="text;html=1;align=center;verticalAlign=middle;resizable=0;points=[];autosize=1;strokeColor=none;fillColor=none;" vertex="1" parent="1">
          <mxGeometry x="350" y="678" width="40" height="30" as="geometry" />
        </mxCell>
        <mxCell id="EGHb8W3hOEWeccC0JwiV-170" value="1,N" style="text;html=1;align=center;verticalAlign=middle;resizable=0;points=[];autosize=1;strokeColor=none;fillColor=none;" vertex="1" parent="1">
          <mxGeometry x="700" y="680" width="40" height="30" as="geometry" />
        </mxCell>
        <mxCell id="EGHb8W3hOEWeccC0JwiV-171" value="" style="endArrow=none;html=1;rounded=0;exitX=0.5;exitY=0;exitDx=0;exitDy=0;entryX=0.5;entryY=1;entryDx=0;entryDy=0;" edge="1" parent="1" source="EGHb8W3hOEWeccC0JwiV-166" target="EGHb8W3hOEWeccC0JwiV-172">
          <mxGeometry width="50" height="50" relative="1" as="geometry">
            <mxPoint x="500" y="650" as="sourcePoint" />
            <mxPoint x="560" y="630" as="targetPoint" />
          </mxGeometry>
        </mxCell>
        <mxCell id="EGHb8W3hOEWeccC0JwiV-172" value="" style="ellipse;whiteSpace=wrap;html=1;aspect=fixed;" vertex="1" parent="1">
          <mxGeometry x="549" y="622" width="17" height="17" as="geometry" />
        </mxCell>
        <mxCell id="EGHb8W3hOEWeccC0JwiV-173" value="" style="endArrow=none;html=1;rounded=0;entryX=0.5;entryY=1;entryDx=0;entryDy=0;exitX=0.5;exitY=0;exitDx=0;exitDy=0;" edge="1" parent="1" source="EGHb8W3hOEWeccC0JwiV-174" target="EGHb8W3hOEWeccC0JwiV-166">
          <mxGeometry width="50" height="50" relative="1" as="geometry">
            <mxPoint x="558" y="720" as="sourcePoint" />
            <mxPoint x="590" y="720" as="targetPoint" />
          </mxGeometry>
        </mxCell>
        <mxCell id="EGHb8W3hOEWeccC0JwiV-174" value="" style="ellipse;whiteSpace=wrap;html=1;aspect=fixed;" vertex="1" parent="1">
          <mxGeometry x="550" y="725.5" width="14.5" height="14.5" as="geometry" />
        </mxCell>
        <mxCell id="EGHb8W3hOEWeccC0JwiV-175" value="Fecha inicio" style="text;html=1;align=center;verticalAlign=middle;resizable=0;points=[];autosize=1;strokeColor=none;fillColor=none;" vertex="1" parent="1">
          <mxGeometry x="512.5" y="595" width="90" height="30" as="geometry" />
        </mxCell>
        <mxCell id="EGHb8W3hOEWeccC0JwiV-176" value="Fecha fin" style="text;html=1;align=center;verticalAlign=middle;resizable=0;points=[];autosize=1;strokeColor=none;fillColor=none;" vertex="1" parent="1">
          <mxGeometry x="520" y="735" width="70" height="30" as="geometry" />
        </mxCell>
        <mxCell id="EGHb8W3hOEWeccC0JwiV-179" value="" style="endArrow=none;html=1;rounded=0;entryX=0;entryY=0.5;entryDx=0;entryDy=0;exitX=1;exitY=0.5;exitDx=0;exitDy=0;" edge="1" parent="1" source="EGHb8W3hOEWeccC0JwiV-180" target="EGHb8W3hOEWeccC0JwiV-163">
          <mxGeometry width="50" height="50" relative="1" as="geometry">
            <mxPoint x="130" y="1275" as="sourcePoint" />
            <mxPoint x="130" y="1240" as="targetPoint" />
          </mxGeometry>
        </mxCell>
        <mxCell id="EGHb8W3hOEWeccC0JwiV-180" value="" style="ellipse;whiteSpace=wrap;html=1;aspect=fixed;" vertex="1" parent="1">
          <mxGeometry x="115" y="1267.5" width="15" height="15" as="geometry" />
        </mxCell>
        <mxCell id="EGHb8W3hOEWeccC0JwiV-181" value="" style="endArrow=none;html=1;rounded=0;entryX=0;entryY=0;entryDx=0;entryDy=0;exitX=1;exitY=1;exitDx=0;exitDy=0;" edge="1" parent="1" source="EGHb8W3hOEWeccC0JwiV-182" target="EGHb8W3hOEWeccC0JwiV-163">
          <mxGeometry width="50" height="50" relative="1" as="geometry">
            <mxPoint x="130" y="1247.5" as="sourcePoint" />
            <mxPoint x="150" y="1247.5" as="targetPoint" />
          </mxGeometry>
        </mxCell>
        <mxCell id="EGHb8W3hOEWeccC0JwiV-182" value="" style="ellipse;whiteSpace=wrap;html=1;aspect=fixed;" vertex="1" parent="1">
          <mxGeometry x="115" y="1240" width="15" height="15" as="geometry" />
        </mxCell>
        <mxCell id="EGHb8W3hOEWeccC0JwiV-183" value="" style="endArrow=none;html=1;rounded=0;exitX=1;exitY=1;exitDx=0;exitDy=0;entryX=0.5;entryY=0;entryDx=0;entryDy=0;" edge="1" parent="1" source="EGHb8W3hOEWeccC0JwiV-184" target="EGHb8W3hOEWeccC0JwiV-163">
          <mxGeometry width="50" height="50" relative="1" as="geometry">
            <mxPoint x="150" y="1227.5" as="sourcePoint" />
            <mxPoint x="170" y="1228" as="targetPoint" />
          </mxGeometry>
        </mxCell>
        <mxCell id="EGHb8W3hOEWeccC0JwiV-184" value="" style="ellipse;whiteSpace=wrap;html=1;aspect=fixed;" vertex="1" parent="1">
          <mxGeometry x="135" y="1220" width="15" height="15" as="geometry" />
        </mxCell>
        <mxCell id="EGHb8W3hOEWeccC0JwiV-187" value="Nro" style="text;html=1;align=center;verticalAlign=middle;resizable=0;points=[];autosize=1;strokeColor=none;fillColor=none;" vertex="1" parent="1">
          <mxGeometry x="70" y="1260" width="40" height="30" as="geometry" />
        </mxCell>
        <mxCell id="EGHb8W3hOEWeccC0JwiV-188" value="Calle" style="text;html=1;align=center;verticalAlign=middle;resizable=0;points=[];autosize=1;strokeColor=none;fillColor=none;" vertex="1" parent="1">
          <mxGeometry x="65" y="1232.5" width="50" height="30" as="geometry" />
        </mxCell>
        <mxCell id="EGHb8W3hOEWeccC0JwiV-189" value="Piso" style="text;html=1;align=center;verticalAlign=middle;resizable=0;points=[];autosize=1;strokeColor=none;fillColor=none;" vertex="1" parent="1">
          <mxGeometry x="90" y="1202.5" width="50" height="30" as="geometry" />
        </mxCell>
        <mxCell id="EGHb8W3hOEWeccC0JwiV-190" value="" style="endArrow=none;html=1;rounded=0;entryX=1;entryY=0;entryDx=0;entryDy=0;exitX=1;exitY=1;exitDx=0;exitDy=0;" edge="1" parent="1" source="EGHb8W3hOEWeccC0JwiV-191" target="EGHb8W3hOEWeccC0JwiV-163">
          <mxGeometry width="50" height="50" relative="1" as="geometry">
            <mxPoint x="182.5" y="1217.5" as="sourcePoint" />
            <mxPoint x="202.5" y="1217.5" as="targetPoint" />
          </mxGeometry>
        </mxCell>
        <mxCell id="EGHb8W3hOEWeccC0JwiV-191" value="" style="ellipse;whiteSpace=wrap;html=1;aspect=fixed;" vertex="1" parent="1">
          <mxGeometry x="167.5" y="1210" width="15" height="15" as="geometry" />
        </mxCell>
        <mxCell id="EGHb8W3hOEWeccC0JwiV-192" value="Dpto" style="text;html=1;align=center;verticalAlign=middle;resizable=0;points=[];autosize=1;strokeColor=none;fillColor=none;" vertex="1" parent="1">
          <mxGeometry x="140" y="1180" width="50" height="30" as="geometry" />
        </mxCell>
        <mxCell id="EGHb8W3hOEWeccC0JwiV-193" value="Direccion" style="ellipse;whiteSpace=wrap;html=1;" vertex="1" parent="1">
          <mxGeometry x="210" y="450" width="60" height="30" as="geometry" />
        </mxCell>
        <mxCell id="EGHb8W3hOEWeccC0JwiV-194" value="" style="endArrow=none;html=1;rounded=0;entryX=0;entryY=0.5;entryDx=0;entryDy=0;exitX=1;exitY=0.5;exitDx=0;exitDy=0;" edge="1" parent="1" source="EGHb8W3hOEWeccC0JwiV-195" target="EGHb8W3hOEWeccC0JwiV-193">
          <mxGeometry width="50" height="50" relative="1" as="geometry">
            <mxPoint x="190" y="465" as="sourcePoint" />
            <mxPoint x="190" y="430" as="targetPoint" />
          </mxGeometry>
        </mxCell>
        <mxCell id="EGHb8W3hOEWeccC0JwiV-195" value="" style="ellipse;whiteSpace=wrap;html=1;aspect=fixed;" vertex="1" parent="1">
          <mxGeometry x="175" y="457.5" width="15" height="15" as="geometry" />
        </mxCell>
        <mxCell id="EGHb8W3hOEWeccC0JwiV-196" value="" style="endArrow=none;html=1;rounded=0;entryX=0;entryY=0;entryDx=0;entryDy=0;exitX=1;exitY=1;exitDx=0;exitDy=0;" edge="1" parent="1" source="EGHb8W3hOEWeccC0JwiV-197" target="EGHb8W3hOEWeccC0JwiV-193">
          <mxGeometry width="50" height="50" relative="1" as="geometry">
            <mxPoint x="190" y="437.5" as="sourcePoint" />
            <mxPoint x="210" y="437.5" as="targetPoint" />
          </mxGeometry>
        </mxCell>
        <mxCell id="EGHb8W3hOEWeccC0JwiV-197" value="" style="ellipse;whiteSpace=wrap;html=1;aspect=fixed;" vertex="1" parent="1">
          <mxGeometry x="175" y="430" width="15" height="15" as="geometry" />
        </mxCell>
        <mxCell id="EGHb8W3hOEWeccC0JwiV-198" value="" style="endArrow=none;html=1;rounded=0;exitX=1;exitY=1;exitDx=0;exitDy=0;entryX=0.5;entryY=0;entryDx=0;entryDy=0;" edge="1" parent="1" source="EGHb8W3hOEWeccC0JwiV-199" target="EGHb8W3hOEWeccC0JwiV-193">
          <mxGeometry width="50" height="50" relative="1" as="geometry">
            <mxPoint x="210" y="417.5" as="sourcePoint" />
            <mxPoint x="230" y="418" as="targetPoint" />
          </mxGeometry>
        </mxCell>
        <mxCell id="EGHb8W3hOEWeccC0JwiV-199" value="" style="ellipse;whiteSpace=wrap;html=1;aspect=fixed;" vertex="1" parent="1">
          <mxGeometry x="195" y="410" width="15" height="15" as="geometry" />
        </mxCell>
        <mxCell id="EGHb8W3hOEWeccC0JwiV-200" value="Nro" style="text;html=1;align=center;verticalAlign=middle;resizable=0;points=[];autosize=1;strokeColor=none;fillColor=none;" vertex="1" parent="1">
          <mxGeometry x="130" y="450" width="40" height="30" as="geometry" />
        </mxCell>
        <mxCell id="EGHb8W3hOEWeccC0JwiV-201" value="Calle" style="text;html=1;align=center;verticalAlign=middle;resizable=0;points=[];autosize=1;strokeColor=none;fillColor=none;" vertex="1" parent="1">
          <mxGeometry x="125" y="422.5" width="50" height="30" as="geometry" />
        </mxCell>
        <mxCell id="EGHb8W3hOEWeccC0JwiV-202" value="Piso" style="text;html=1;align=center;verticalAlign=middle;resizable=0;points=[];autosize=1;strokeColor=none;fillColor=none;" vertex="1" parent="1">
          <mxGeometry x="150" y="392.5" width="50" height="30" as="geometry" />
        </mxCell>
        <mxCell id="EGHb8W3hOEWeccC0JwiV-203" value="" style="endArrow=none;html=1;rounded=0;entryX=1;entryY=0;entryDx=0;entryDy=0;exitX=1;exitY=1;exitDx=0;exitDy=0;" edge="1" parent="1" source="EGHb8W3hOEWeccC0JwiV-204" target="EGHb8W3hOEWeccC0JwiV-193">
          <mxGeometry width="50" height="50" relative="1" as="geometry">
            <mxPoint x="242.5" y="407.5" as="sourcePoint" />
            <mxPoint x="262.5" y="407.5" as="targetPoint" />
          </mxGeometry>
        </mxCell>
        <mxCell id="EGHb8W3hOEWeccC0JwiV-204" value="" style="ellipse;whiteSpace=wrap;html=1;aspect=fixed;" vertex="1" parent="1">
          <mxGeometry x="227.5" y="400" width="15" height="15" as="geometry" />
        </mxCell>
        <mxCell id="EGHb8W3hOEWeccC0JwiV-205" value="Dpto" style="text;html=1;align=center;verticalAlign=middle;resizable=0;points=[];autosize=1;strokeColor=none;fillColor=none;" vertex="1" parent="1">
          <mxGeometry x="200" y="370" width="50" height="30" as="geometry" />
        </mxCell>
        <mxCell id="EGHb8W3hOEWeccC0JwiV-209" value="" style="endArrow=none;html=1;rounded=0;exitX=1;exitY=0.5;exitDx=0;exitDy=0;edgeStyle=orthogonalEdgeStyle;curved=1;entryX=0.047;entryY=-0.089;entryDx=0;entryDy=0;entryPerimeter=0;" edge="1" parent="1" source="EGHb8W3hOEWeccC0JwiV-210" target="EGHb8W3hOEWeccC0JwiV-145">
          <mxGeometry width="50" height="50" relative="1" as="geometry">
            <mxPoint x="-70" y="865" as="sourcePoint" />
            <mxPoint x="30" y="740" as="targetPoint" />
            <Array as="points">
              <mxPoint y="998" />
              <mxPoint y="920" />
              <mxPoint x="-40" y="920" />
              <mxPoint x="-40" y="760" />
              <mxPoint x="31" y="760" />
              <mxPoint x="31" y="740" />
              <mxPoint x="57" y="740" />
            </Array>
          </mxGeometry>
        </mxCell>
        <mxCell id="EGHb8W3hOEWeccC0JwiV-210" value="" style="ellipse;whiteSpace=wrap;html=1;aspect=fixed;rotation=-80;fillColor=#0A0A0A;" vertex="1" parent="1">
          <mxGeometry x="-3.17" y="998.17" width="10" height="10" as="geometry" />
        </mxCell>
        <mxCell id="EGHb8W3hOEWeccC0JwiV-212" value="" style="endArrow=none;html=1;rounded=0;entryX=0;entryY=0.5;entryDx=0;entryDy=0;exitX=1;exitY=0.5;exitDx=0;exitDy=0;" edge="1" parent="1" source="EGHb8W3hOEWeccC0JwiV-213" target="EGHb8W3hOEWeccC0JwiV-109">
          <mxGeometry width="50" height="50" relative="1" as="geometry">
            <mxPoint x="60" y="1000" as="sourcePoint" />
            <mxPoint x="30" y="970" as="targetPoint" />
          </mxGeometry>
        </mxCell>
        <mxCell id="EGHb8W3hOEWeccC0JwiV-213" value="" style="ellipse;whiteSpace=wrap;html=1;aspect=fixed;rotation=15;" vertex="1" parent="1">
          <mxGeometry x="-28" y="976" width="18" height="18" as="geometry" />
        </mxCell>
        <mxCell id="EGHb8W3hOEWeccC0JwiV-216" value="" style="endArrow=none;html=1;rounded=0;entryX=0;entryY=0.75;entryDx=0;entryDy=0;exitX=1;exitY=0;exitDx=0;exitDy=0;" edge="1" parent="1" source="EGHb8W3hOEWeccC0JwiV-217" target="EGHb8W3hOEWeccC0JwiV-109">
          <mxGeometry width="50" height="50" relative="1" as="geometry">
            <mxPoint x="50" y="1040" as="sourcePoint" />
            <mxPoint x="70" y="1070" as="targetPoint" />
          </mxGeometry>
        </mxCell>
        <mxCell id="EGHb8W3hOEWeccC0JwiV-217" value="" style="ellipse;whiteSpace=wrap;html=1;aspect=fixed;rotation=35;" vertex="1" parent="1">
          <mxGeometry x="20" y="1043" width="20" height="20" as="geometry" />
        </mxCell>
        <mxCell id="EGHb8W3hOEWeccC0JwiV-218" value="" style="ellipse;whiteSpace=wrap;html=1;aspect=fixed;rotation=15;" vertex="1" parent="1">
          <mxGeometry x="45" y="1073" width="20" height="20" as="geometry" />
        </mxCell>
        <mxCell id="EGHb8W3hOEWeccC0JwiV-219" value="" style="endArrow=none;html=1;rounded=0;entryX=0;entryY=1;entryDx=0;entryDy=0;exitX=1;exitY=0;exitDx=0;exitDy=0;" edge="1" parent="1" source="EGHb8W3hOEWeccC0JwiV-218" target="EGHb8W3hOEWeccC0JwiV-109">
          <mxGeometry width="50" height="50" relative="1" as="geometry">
            <mxPoint x="-60" y="1090" as="sourcePoint" />
            <mxPoint x="-10" y="1040" as="targetPoint" />
          </mxGeometry>
        </mxCell>
        <mxCell id="EGHb8W3hOEWeccC0JwiV-224" value="Fecha de inicio" style="text;html=1;align=center;verticalAlign=middle;resizable=0;points=[];autosize=1;strokeColor=none;fillColor=none;" vertex="1" parent="1">
          <mxGeometry x="-125" y="970" width="100" height="30" as="geometry" />
        </mxCell>
        <mxCell id="EGHb8W3hOEWeccC0JwiV-225" value="Fin de fecha" style="text;html=1;align=center;verticalAlign=middle;resizable=0;points=[];autosize=1;strokeColor=none;fillColor=none;" vertex="1" parent="1">
          <mxGeometry x="-64" y="1043" width="90" height="30" as="geometry" />
        </mxCell>
        <mxCell id="EGHb8W3hOEWeccC0JwiV-226" value="Precio" style="text;html=1;align=center;verticalAlign=middle;resizable=0;points=[];autosize=1;strokeColor=none;fillColor=none;" vertex="1" parent="1">
          <mxGeometry x="-5" y="1068" width="60" height="30" as="geometry" />
        </mxCell>
        <mxCell id="EGHb8W3hOEWeccC0JwiV-227" value="" style="endArrow=none;html=1;rounded=0;entryX=1.023;entryY=0.089;entryDx=0;entryDy=0;exitX=1;exitY=0.5;exitDx=0;exitDy=0;entryPerimeter=0;" edge="1" parent="1" source="EGHb8W3hOEWeccC0JwiV-228" target="EGHb8W3hOEWeccC0JwiV-110">
          <mxGeometry width="50" height="50" relative="1" as="geometry">
            <mxPoint x="625" y="970" as="sourcePoint" />
            <mxPoint x="650" y="970" as="targetPoint" />
          </mxGeometry>
        </mxCell>
        <mxCell id="EGHb8W3hOEWeccC0JwiV-228" value="" style="ellipse;whiteSpace=wrap;html=1;aspect=fixed;rotation=-195;" vertex="1" parent="1">
          <mxGeometry x="590" y="952" width="18" height="18" as="geometry" />
        </mxCell>
        <mxCell id="EGHb8W3hOEWeccC0JwiV-229" value="" style="endArrow=none;html=1;rounded=0;entryX=0;entryY=0.75;entryDx=0;entryDy=0;exitX=0.5;exitY=1;exitDx=0;exitDy=0;" edge="1" parent="1" source="EGHb8W3hOEWeccC0JwiV-253" target="EGHb8W3hOEWeccC0JwiV-110">
          <mxGeometry width="50" height="50" relative="1" as="geometry">
            <mxPoint x="705" y="1018.5" as="sourcePoint" />
            <mxPoint x="740" y="993.5" as="targetPoint" />
          </mxGeometry>
        </mxCell>
        <mxCell id="EGHb8W3hOEWeccC0JwiV-230" value="" style="ellipse;whiteSpace=wrap;html=1;aspect=fixed;rotation=35;" vertex="1" parent="1">
          <mxGeometry x="360" y="1011.97" width="22.4" height="22.4" as="geometry" />
        </mxCell>
        <mxCell id="EGHb8W3hOEWeccC0JwiV-231" value="" style="ellipse;whiteSpace=wrap;html=1;aspect=fixed;rotation=-135;" vertex="1" parent="1">
          <mxGeometry x="582.5" y="993.17" width="20" height="20" as="geometry" />
        </mxCell>
        <mxCell id="EGHb8W3hOEWeccC0JwiV-232" value="" style="endArrow=none;html=1;rounded=0;entryX=1;entryY=0.5;entryDx=0;entryDy=0;exitX=1;exitY=0;exitDx=0;exitDy=0;" edge="1" parent="1" source="EGHb8W3hOEWeccC0JwiV-231" target="EGHb8W3hOEWeccC0JwiV-110">
          <mxGeometry width="50" height="50" relative="1" as="geometry">
            <mxPoint x="595" y="1068.5" as="sourcePoint" />
            <mxPoint x="740" y="1008.5" as="targetPoint" />
          </mxGeometry>
        </mxCell>
        <mxCell id="EGHb8W3hOEWeccC0JwiV-233" value="Fecha&amp;nbsp;" style="text;html=1;align=center;verticalAlign=middle;resizable=0;points=[];autosize=1;strokeColor=none;fillColor=none;" vertex="1" parent="1">
          <mxGeometry x="305" y="971.67" width="60" height="30" as="geometry" />
        </mxCell>
        <mxCell id="EGHb8W3hOEWeccC0JwiV-234" value="Hora" style="text;html=1;align=center;verticalAlign=middle;resizable=0;points=[];autosize=1;strokeColor=none;fillColor=none;" vertex="1" parent="1">
          <mxGeometry x="315" y="1008.1700000000001" width="50" height="30" as="geometry" />
        </mxCell>
        <mxCell id="EGHb8W3hOEWeccC0JwiV-235" value="Precio" style="text;html=1;align=center;verticalAlign=middle;resizable=0;points=[];autosize=1;strokeColor=none;fillColor=none;" vertex="1" parent="1">
          <mxGeometry x="595" y="985" width="60" height="30" as="geometry" />
        </mxCell>
        <mxCell id="EGHb8W3hOEWeccC0JwiV-238" value="" style="endArrow=none;html=1;rounded=0;exitX=0.5;exitY=0;exitDx=0;exitDy=0;entryX=0;entryY=1;entryDx=0;entryDy=0;" edge="1" parent="1" target="EGHb8W3hOEWeccC0JwiV-239" source="EGHb8W3hOEWeccC0JwiV-249">
          <mxGeometry width="50" height="50" relative="1" as="geometry">
            <mxPoint x="355" y="975.5" as="sourcePoint" />
            <mxPoint x="390" y="975.5" as="targetPoint" />
          </mxGeometry>
        </mxCell>
        <mxCell id="EGHb8W3hOEWeccC0JwiV-239" value="" style="ellipse;whiteSpace=wrap;html=1;aspect=fixed;rotation=-145;" vertex="1" parent="1">
          <mxGeometry x="350.5" y="975.17" width="23" height="23" as="geometry" />
        </mxCell>
        <mxCell id="EGHb8W3hOEWeccC0JwiV-240" value="Comicion" style="text;html=1;align=center;verticalAlign=middle;resizable=0;points=[];autosize=1;strokeColor=none;fillColor=none;" vertex="1" parent="1">
          <mxGeometry x="605.37" y="945.17" width="70" height="30" as="geometry" />
        </mxCell>
        <mxCell id="EGHb8W3hOEWeccC0JwiV-243" value="" style="endArrow=none;html=1;rounded=0;edgeStyle=orthogonalEdgeStyle;curved=1;exitX=1;exitY=0.5;exitDx=0;exitDy=0;" edge="1" parent="1" source="EGHb8W3hOEWeccC0JwiV-248">
          <mxGeometry width="50" height="50" relative="1" as="geometry">
            <mxPoint x="410" y="1030" as="sourcePoint" />
            <mxPoint x="290" y="780" as="targetPoint" />
            <Array as="points">
              <mxPoint x="411" y="1030" />
              <mxPoint x="400" y="1030" />
              <mxPoint x="400" y="960" />
              <mxPoint x="330" y="960" />
              <mxPoint x="330" y="890" />
              <mxPoint x="270" y="890" />
              <mxPoint x="270" y="850" />
              <mxPoint x="290" y="850" />
            </Array>
          </mxGeometry>
        </mxCell>
        <mxCell id="EGHb8W3hOEWeccC0JwiV-248" value="" style="ellipse;whiteSpace=wrap;html=1;aspect=fixed;rotation=-80;fillColor=#0A0A0A;" vertex="1" parent="1">
          <mxGeometry x="405" y="1038" width="10" height="10" as="geometry" />
        </mxCell>
        <mxCell id="EGHb8W3hOEWeccC0JwiV-251" value="" style="endArrow=none;html=1;rounded=0;exitX=0;exitY=0.25;exitDx=0;exitDy=0;entryX=0.5;entryY=1;entryDx=0;entryDy=0;" edge="1" parent="1" source="EGHb8W3hOEWeccC0JwiV-110" target="EGHb8W3hOEWeccC0JwiV-249">
          <mxGeometry width="50" height="50" relative="1" as="geometry">
            <mxPoint x="430" y="985" as="sourcePoint" />
            <mxPoint x="373" y="985" as="targetPoint" />
          </mxGeometry>
        </mxCell>
        <mxCell id="EGHb8W3hOEWeccC0JwiV-249" value="" style="ellipse;whiteSpace=wrap;html=1;aspect=fixed;rotation=-90;fillColor=#0A0A0A;" vertex="1" parent="1">
          <mxGeometry x="393" y="980" width="10" height="10" as="geometry" />
        </mxCell>
        <mxCell id="EGHb8W3hOEWeccC0JwiV-254" value="" style="endArrow=none;html=1;rounded=0;exitX=1;exitY=0;exitDx=0;exitDy=0;entryX=0.5;entryY=0;entryDx=0;entryDy=0;" edge="1" parent="1" source="EGHb8W3hOEWeccC0JwiV-230" target="EGHb8W3hOEWeccC0JwiV-253">
          <mxGeometry width="50" height="50" relative="1" as="geometry">
            <mxPoint x="387" y="1021" as="sourcePoint" />
            <mxPoint x="390" y="1023" as="targetPoint" />
          </mxGeometry>
        </mxCell>
        <mxCell id="EGHb8W3hOEWeccC0JwiV-253" value="" style="ellipse;whiteSpace=wrap;html=1;aspect=fixed;rotation=-90;fillColor=#0A0A0A;" vertex="1" parent="1">
          <mxGeometry x="395" y="1015" width="10" height="10" as="geometry" />
        </mxCell>
        <mxCell id="EGHb8W3hOEWeccC0JwiV-255" value="" style="endArrow=classic;html=1;rounded=0;entryX=0.5;entryY=1;entryDx=0;entryDy=0;" edge="1" parent="1" target="EGHb8W3hOEWeccC0JwiV-2">
          <mxGeometry width="50" height="50" relative="1" as="geometry">
            <mxPoint x="190" y="610" as="sourcePoint" />
            <mxPoint x="290" y="590" as="targetPoint" />
          </mxGeometry>
        </mxCell>
        <mxCell id="EGHb8W3hOEWeccC0JwiV-256" value="CONCEPTUAL:" style="text;html=1;align=center;verticalAlign=middle;resizable=0;points=[];autosize=1;strokeColor=none;fillColor=none;" vertex="1" parent="1">
          <mxGeometry x="355" y="428" width="110" height="30" as="geometry" />
        </mxCell>
        <mxCell id="EGHb8W3hOEWeccC0JwiV-428" value="Personas" style="rounded=0;whiteSpace=wrap;html=1;" vertex="1" parent="1">
          <mxGeometry x="1435" y="492" width="120" height="60" as="geometry" />
        </mxCell>
        <mxCell id="EGHb8W3hOEWeccC0JwiV-429" value="Clientes" style="rounded=0;whiteSpace=wrap;html=1;" vertex="1" parent="1">
          <mxGeometry x="1335" y="612" width="120" height="60" as="geometry" />
        </mxCell>
        <mxCell id="EGHb8W3hOEWeccC0JwiV-430" value="Empleados" style="rounded=0;whiteSpace=wrap;html=1;" vertex="1" parent="1">
          <mxGeometry x="1525" y="612" width="120" height="60" as="geometry" />
        </mxCell>
        <mxCell id="EGHb8W3hOEWeccC0JwiV-431" value="" style="endArrow=none;html=1;rounded=0;" edge="1" parent="1">
          <mxGeometry width="50" height="50" relative="1" as="geometry">
            <mxPoint x="1415" y="572" as="sourcePoint" />
            <mxPoint x="1585" y="572" as="targetPoint" />
          </mxGeometry>
        </mxCell>
        <mxCell id="EGHb8W3hOEWeccC0JwiV-432" value="" style="endArrow=none;html=1;rounded=0;exitX=0.5;exitY=0;exitDx=0;exitDy=0;" edge="1" parent="1" source="EGHb8W3hOEWeccC0JwiV-429">
          <mxGeometry width="50" height="50" relative="1" as="geometry">
            <mxPoint x="1345" y="632" as="sourcePoint" />
            <mxPoint x="1415" y="572" as="targetPoint" />
          </mxGeometry>
        </mxCell>
        <mxCell id="EGHb8W3hOEWeccC0JwiV-433" value="" style="endArrow=none;html=1;rounded=0;exitX=0.7;exitY=-0.033;exitDx=0;exitDy=0;exitPerimeter=0;" edge="1" parent="1" source="EGHb8W3hOEWeccC0JwiV-430">
          <mxGeometry width="50" height="50" relative="1" as="geometry">
            <mxPoint x="1525" y="602" as="sourcePoint" />
            <mxPoint x="1585" y="572" as="targetPoint" />
          </mxGeometry>
        </mxCell>
        <mxCell id="EGHb8W3hOEWeccC0JwiV-434" value="T,E" style="text;html=1;align=center;verticalAlign=middle;resizable=0;points=[];autosize=1;strokeColor=none;fillColor=none;" vertex="1" parent="1">
          <mxGeometry x="1475" y="564" width="40" height="30" as="geometry" />
        </mxCell>
        <mxCell id="EGHb8W3hOEWeccC0JwiV-435" value="" style="endArrow=none;html=1;rounded=0;entryX=0;entryY=0.75;entryDx=0;entryDy=0;exitX=1;exitY=0.5;exitDx=0;exitDy=0;" edge="1" parent="1" source="EGHb8W3hOEWeccC0JwiV-439" target="EGHb8W3hOEWeccC0JwiV-428">
          <mxGeometry width="50" height="50" relative="1" as="geometry">
            <mxPoint x="1405" y="507" as="sourcePoint" />
            <mxPoint x="1405" y="482" as="targetPoint" />
          </mxGeometry>
        </mxCell>
        <mxCell id="EGHb8W3hOEWeccC0JwiV-436" value="" style="endArrow=none;html=1;rounded=0;exitX=0;exitY=0;exitDx=0;exitDy=0;entryX=1;entryY=1;entryDx=0;entryDy=0;" edge="1" parent="1" source="EGHb8W3hOEWeccC0JwiV-428" target="EGHb8W3hOEWeccC0JwiV-440">
          <mxGeometry width="50" height="50" relative="1" as="geometry">
            <mxPoint x="1445" y="472" as="sourcePoint" />
            <mxPoint x="1475" y="462" as="targetPoint" />
          </mxGeometry>
        </mxCell>
        <mxCell id="EGHb8W3hOEWeccC0JwiV-437" value="" style="endArrow=none;html=1;rounded=0;exitX=0.25;exitY=0;exitDx=0;exitDy=0;entryX=0.5;entryY=1;entryDx=0;entryDy=0;" edge="1" parent="1" source="EGHb8W3hOEWeccC0JwiV-428" target="EGHb8W3hOEWeccC0JwiV-441">
          <mxGeometry width="50" height="50" relative="1" as="geometry">
            <mxPoint x="1494.5" y="492" as="sourcePoint" />
            <mxPoint x="1494.5" y="472" as="targetPoint" />
          </mxGeometry>
        </mxCell>
        <mxCell id="EGHb8W3hOEWeccC0JwiV-438" value="" style="endArrow=none;html=1;rounded=0;exitX=0.75;exitY=0;exitDx=0;exitDy=0;entryX=0.5;entryY=1;entryDx=0;entryDy=0;" edge="1" parent="1" source="EGHb8W3hOEWeccC0JwiV-428" target="EGHb8W3hOEWeccC0JwiV-555">
          <mxGeometry width="50" height="50" relative="1" as="geometry">
            <mxPoint x="1525" y="472" as="sourcePoint" />
            <mxPoint x="1537.9295163783722" y="457.5379527193377" as="targetPoint" />
            <Array as="points" />
            <mxPoint as="offset" />
          </mxGeometry>
        </mxCell>
        <mxCell id="EGHb8W3hOEWeccC0JwiV-439" value="" style="ellipse;whiteSpace=wrap;html=1;aspect=fixed;rotation=15;fillColor=#030303;" vertex="1" parent="1">
          <mxGeometry x="1375" y="514" width="20" height="20" as="geometry" />
        </mxCell>
        <mxCell id="EGHb8W3hOEWeccC0JwiV-440" value="" style="ellipse;whiteSpace=wrap;html=1;aspect=fixed;rotation=-15;" vertex="1" parent="1">
          <mxGeometry x="1385" y="472" width="20" height="20" as="geometry" />
        </mxCell>
        <mxCell id="EGHb8W3hOEWeccC0JwiV-441" value="" style="ellipse;whiteSpace=wrap;html=1;aspect=fixed;rotation=-55;" vertex="1" parent="1">
          <mxGeometry x="1405" y="442" width="20" height="20" as="geometry" />
        </mxCell>
        <mxCell id="EGHb8W3hOEWeccC0JwiV-442" value="" style="endArrow=none;html=1;rounded=0;exitX=1;exitY=0;exitDx=0;exitDy=0;" edge="1" parent="1" source="EGHb8W3hOEWeccC0JwiV-430" target="EGHb8W3hOEWeccC0JwiV-443">
          <mxGeometry width="50" height="50" relative="1" as="geometry">
            <mxPoint x="1655" y="542" as="sourcePoint" />
            <mxPoint x="1575" y="472" as="targetPoint" />
          </mxGeometry>
        </mxCell>
        <mxCell id="EGHb8W3hOEWeccC0JwiV-443" value="" style="ellipse;whiteSpace=wrap;html=1;aspect=fixed;rotation=15;fillColor=#050505;" vertex="1" parent="1">
          <mxGeometry x="1675" y="592" width="20" height="20" as="geometry" />
        </mxCell>
        <mxCell id="EGHb8W3hOEWeccC0JwiV-444" value="DNI 1,1" style="text;html=1;align=center;verticalAlign=middle;resizable=0;points=[];autosize=1;strokeColor=none;fillColor=none;" vertex="1" parent="1">
          <mxGeometry x="1325" y="502" width="60" height="30" as="geometry" />
        </mxCell>
        <mxCell id="EGHb8W3hOEWeccC0JwiV-445" value="Nombre" style="text;html=1;align=center;verticalAlign=middle;resizable=0;points=[];autosize=1;strokeColor=none;fillColor=none;" vertex="1" parent="1">
          <mxGeometry x="1315" y="462" width="70" height="30" as="geometry" />
        </mxCell>
        <mxCell id="EGHb8W3hOEWeccC0JwiV-446" value="Apellido" style="text;html=1;align=center;verticalAlign=middle;resizable=0;points=[];autosize=1;strokeColor=none;fillColor=none;" vertex="1" parent="1">
          <mxGeometry x="1335" y="432" width="70" height="30" as="geometry" />
        </mxCell>
        <mxCell id="EGHb8W3hOEWeccC0JwiV-447" value="Legajo 1,1" style="text;html=1;align=center;verticalAlign=middle;resizable=0;points=[];autosize=1;strokeColor=none;fillColor=none;" vertex="1" parent="1">
          <mxGeometry x="1685" y="582" width="80" height="30" as="geometry" />
        </mxCell>
        <mxCell id="EGHb8W3hOEWeccC0JwiV-448" value="Areas" style="rounded=0;whiteSpace=wrap;html=1;" vertex="1" parent="1">
          <mxGeometry x="2045" y="612" width="120" height="60" as="geometry" />
        </mxCell>
        <mxCell id="EGHb8W3hOEWeccC0JwiV-449" value="" style="endArrow=none;html=1;rounded=0;exitX=1;exitY=0;exitDx=0;exitDy=0;entryX=0.5;entryY=1;entryDx=0;entryDy=0;" edge="1" parent="1" source="EGHb8W3hOEWeccC0JwiV-448" target="EGHb8W3hOEWeccC0JwiV-450">
          <mxGeometry width="50" height="50" relative="1" as="geometry">
            <mxPoint x="2165" y="614" as="sourcePoint" />
            <mxPoint x="2165" y="594" as="targetPoint" />
            <Array as="points" />
            <mxPoint as="offset" />
          </mxGeometry>
        </mxCell>
        <mxCell id="EGHb8W3hOEWeccC0JwiV-450" value="" style="ellipse;whiteSpace=wrap;html=1;aspect=fixed;rotation=15;fillColor=#1C1C1C;" vertex="1" parent="1">
          <mxGeometry x="2165" y="564" width="20" height="20" as="geometry" />
        </mxCell>
        <mxCell id="EGHb8W3hOEWeccC0JwiV-451" value="codigo" style="text;html=1;align=center;verticalAlign=middle;resizable=0;points=[];autosize=1;strokeColor=none;fillColor=none;" vertex="1" parent="1">
          <mxGeometry x="2160" y="534" width="60" height="30" as="geometry" />
        </mxCell>
        <mxCell id="EGHb8W3hOEWeccC0JwiV-452" value="" style="endArrow=none;html=1;rounded=0;exitX=0.592;exitY=0.05;exitDx=0;exitDy=0;entryX=0.5;entryY=1;entryDx=0;entryDy=0;exitPerimeter=0;" edge="1" parent="1" source="EGHb8W3hOEWeccC0JwiV-448" target="EGHb8W3hOEWeccC0JwiV-453">
          <mxGeometry width="50" height="50" relative="1" as="geometry">
            <mxPoint x="2125" y="612" as="sourcePoint" />
            <mxPoint x="2125" y="592" as="targetPoint" />
            <Array as="points" />
            <mxPoint as="offset" />
          </mxGeometry>
        </mxCell>
        <mxCell id="EGHb8W3hOEWeccC0JwiV-453" value="" style="ellipse;whiteSpace=wrap;html=1;aspect=fixed;rotation=-95;direction=south;" vertex="1" parent="1">
          <mxGeometry x="2105" y="564" width="20" height="20" as="geometry" />
        </mxCell>
        <mxCell id="EGHb8W3hOEWeccC0JwiV-454" value="descripcion" style="text;html=1;align=center;verticalAlign=middle;resizable=0;points=[];autosize=1;strokeColor=none;fillColor=none;" vertex="1" parent="1">
          <mxGeometry x="2075" y="534" width="80" height="30" as="geometry" />
        </mxCell>
        <mxCell id="EGHb8W3hOEWeccC0JwiV-455" value="" style="endArrow=none;html=1;rounded=0;exitX=0.25;exitY=0;exitDx=0;exitDy=0;entryX=0.5;entryY=1;entryDx=0;entryDy=0;" edge="1" parent="1" source="EGHb8W3hOEWeccC0JwiV-448" target="EGHb8W3hOEWeccC0JwiV-456">
          <mxGeometry width="50" height="50" relative="1" as="geometry">
            <mxPoint x="2025" y="589" as="sourcePoint" />
            <mxPoint x="2025" y="569" as="targetPoint" />
            <Array as="points" />
            <mxPoint as="offset" />
          </mxGeometry>
        </mxCell>
        <mxCell id="EGHb8W3hOEWeccC0JwiV-456" value="" style="ellipse;whiteSpace=wrap;html=1;aspect=fixed;rotation=-30;" vertex="1" parent="1">
          <mxGeometry x="2045" y="564" width="20" height="20" as="geometry" />
        </mxCell>
        <mxCell id="EGHb8W3hOEWeccC0JwiV-457" value="teléfono" style="text;html=1;align=center;verticalAlign=middle;resizable=0;points=[];autosize=1;strokeColor=none;fillColor=none;" vertex="1" parent="1">
          <mxGeometry x="2015" y="534" width="70" height="30" as="geometry" />
        </mxCell>
        <mxCell id="EGHb8W3hOEWeccC0JwiV-458" value="" style="endArrow=none;html=1;rounded=0;exitX=0;exitY=0;exitDx=0;exitDy=0;entryX=0.5;entryY=1;entryDx=0;entryDy=0;" edge="1" parent="1" source="EGHb8W3hOEWeccC0JwiV-448" target="EGHb8W3hOEWeccC0JwiV-459">
          <mxGeometry width="50" height="50" relative="1" as="geometry">
            <mxPoint x="1955" y="589" as="sourcePoint" />
            <mxPoint x="1955" y="569" as="targetPoint" />
            <Array as="points" />
            <mxPoint as="offset" />
          </mxGeometry>
        </mxCell>
        <mxCell id="EGHb8W3hOEWeccC0JwiV-459" value="" style="ellipse;whiteSpace=wrap;html=1;aspect=fixed;rotation=-50;" vertex="1" parent="1">
          <mxGeometry x="1995" y="579" width="20" height="20" as="geometry" />
        </mxCell>
        <mxCell id="EGHb8W3hOEWeccC0JwiV-460" value="Ubicacion" style="text;html=1;align=center;verticalAlign=middle;resizable=0;points=[];autosize=1;strokeColor=none;fillColor=none;" vertex="1" parent="1">
          <mxGeometry x="1955" y="554" width="80" height="30" as="geometry" />
        </mxCell>
        <mxCell id="EGHb8W3hOEWeccC0JwiV-461" value="" style="endArrow=none;html=1;rounded=0;exitX=0;exitY=0.5;exitDx=0;exitDy=0;entryX=0.821;entryY=0.883;entryDx=0;entryDy=0;fontStyle=1;entryPerimeter=0;" edge="1" parent="1" source="EGHb8W3hOEWeccC0JwiV-429" target="EGHb8W3hOEWeccC0JwiV-462">
          <mxGeometry width="50" height="50" relative="1" as="geometry">
            <mxPoint x="1170" y="702" as="sourcePoint" />
            <mxPoint x="1170" y="682" as="targetPoint" />
            <Array as="points" />
            <mxPoint as="offset" />
          </mxGeometry>
        </mxCell>
        <mxCell id="EGHb8W3hOEWeccC0JwiV-462" value="" style="ellipse;whiteSpace=wrap;html=1;aspect=fixed;rotation=-50;fontStyle=1" vertex="1" parent="1">
          <mxGeometry x="1265" y="605" width="20" height="20" as="geometry" />
        </mxCell>
        <mxCell id="EGHb8W3hOEWeccC0JwiV-463" value="Nacionalidad 1,N" style="text;html=1;align=center;verticalAlign=middle;resizable=0;points=[];autosize=1;strokeColor=none;fillColor=none;fontStyle=1" vertex="1" parent="1">
          <mxGeometry x="1145" y="600" width="120" height="30" as="geometry" />
        </mxCell>
        <mxCell id="EGHb8W3hOEWeccC0JwiV-464" value="" style="endArrow=none;html=1;rounded=0;exitX=0;exitY=0;exitDx=0;exitDy=0;entryX=0.5;entryY=1;entryDx=0;entryDy=0;" edge="1" parent="1" source="EGHb8W3hOEWeccC0JwiV-429" target="EGHb8W3hOEWeccC0JwiV-465">
          <mxGeometry width="50" height="50" relative="1" as="geometry">
            <mxPoint x="1225" y="712" as="sourcePoint" />
            <mxPoint x="1225" y="692" as="targetPoint" />
            <Array as="points" />
            <mxPoint as="offset" />
          </mxGeometry>
        </mxCell>
        <mxCell id="EGHb8W3hOEWeccC0JwiV-465" value="" style="ellipse;whiteSpace=wrap;html=1;aspect=fixed;rotation=-55;" vertex="1" parent="1">
          <mxGeometry x="1295" y="557" width="20" height="20" as="geometry" />
        </mxCell>
        <mxCell id="EGHb8W3hOEWeccC0JwiV-466" value="Sexo 1,1" style="text;html=1;align=center;verticalAlign=middle;resizable=0;points=[];autosize=1;strokeColor=none;fillColor=none;" vertex="1" parent="1">
          <mxGeometry x="1235" y="547" width="70" height="30" as="geometry" />
        </mxCell>
        <mxCell id="EGHb8W3hOEWeccC0JwiV-467" value="" style="endArrow=none;html=1;rounded=0;exitX=0;exitY=0.75;exitDx=0;exitDy=0;entryX=0.5;entryY=1;entryDx=0;entryDy=0;" edge="1" parent="1" source="EGHb8W3hOEWeccC0JwiV-429" target="EGHb8W3hOEWeccC0JwiV-468">
          <mxGeometry width="50" height="50" relative="1" as="geometry">
            <mxPoint x="1325" y="782" as="sourcePoint" />
            <mxPoint x="1325" y="762" as="targetPoint" />
            <Array as="points" />
            <mxPoint as="offset" />
          </mxGeometry>
        </mxCell>
        <mxCell id="EGHb8W3hOEWeccC0JwiV-468" value="" style="ellipse;whiteSpace=wrap;html=1;aspect=fixed;rotation=-60;fillColor=#050505;" vertex="1" parent="1">
          <mxGeometry x="1260" y="660" width="20" height="20" as="geometry" />
        </mxCell>
        <mxCell id="EGHb8W3hOEWeccC0JwiV-469" value="Nro. pasaporte 0,1" style="text;html=1;align=center;verticalAlign=middle;resizable=0;points=[];autosize=1;strokeColor=none;fillColor=none;" vertex="1" parent="1">
          <mxGeometry x="1135" y="655" width="120" height="30" as="geometry" />
        </mxCell>
        <mxCell id="EGHb8W3hOEWeccC0JwiV-470" value="" style="endArrow=none;html=1;rounded=0;entryX=0;entryY=0;entryDx=0;entryDy=0;exitX=0;exitY=1;exitDx=0;exitDy=0;" edge="1" parent="1" source="EGHb8W3hOEWeccC0JwiV-429" target="EGHb8W3hOEWeccC0JwiV-471">
          <mxGeometry width="50" height="50" relative="1" as="geometry">
            <mxPoint x="1355" y="765" as="sourcePoint" />
            <mxPoint x="1355" y="745" as="targetPoint" />
            <Array as="points" />
            <mxPoint as="offset" />
          </mxGeometry>
        </mxCell>
        <mxCell id="EGHb8W3hOEWeccC0JwiV-471" value="" style="ellipse;whiteSpace=wrap;html=1;aspect=fixed;rotation=90;" vertex="1" parent="1">
          <mxGeometry x="1265" y="702" width="20" height="20" as="geometry" />
        </mxCell>
        <mxCell id="EGHb8W3hOEWeccC0JwiV-472" value="Nro. inmuebles 1,N" style="text;html=1;align=center;verticalAlign=middle;resizable=0;points=[];autosize=1;strokeColor=none;fillColor=none;" vertex="1" parent="1">
          <mxGeometry x="1130" y="697" width="130" height="30" as="geometry" />
        </mxCell>
        <mxCell id="EGHb8W3hOEWeccC0JwiV-473" value="Inmuebles" style="rounded=0;whiteSpace=wrap;html=1;" vertex="1" parent="1">
          <mxGeometry x="1550" y="1292" width="120" height="60" as="geometry" />
        </mxCell>
        <mxCell id="EGHb8W3hOEWeccC0JwiV-474" value="" style="endArrow=none;html=1;rounded=0;exitX=0.1;exitY=0.983;exitDx=0;exitDy=0;entryX=0.5;entryY=1;entryDx=0;entryDy=0;exitPerimeter=0;" edge="1" parent="1" source="EGHb8W3hOEWeccC0JwiV-473" target="EGHb8W3hOEWeccC0JwiV-475">
          <mxGeometry width="50" height="50" relative="1" as="geometry">
            <mxPoint x="1750" y="1392" as="sourcePoint" />
            <mxPoint x="1750" y="1372" as="targetPoint" />
            <Array as="points" />
            <mxPoint as="offset" />
          </mxGeometry>
        </mxCell>
        <mxCell id="EGHb8W3hOEWeccC0JwiV-475" value="" style="ellipse;whiteSpace=wrap;html=1;aspect=fixed;rotation=15;" vertex="1" parent="1">
          <mxGeometry x="1560" y="1402" width="20" height="20" as="geometry" />
        </mxCell>
        <mxCell id="EGHb8W3hOEWeccC0JwiV-476" value="" style="endArrow=none;html=1;rounded=0;exitX=0;exitY=0;exitDx=0;exitDy=0;" edge="1" parent="1" source="EGHb8W3hOEWeccC0JwiV-473">
          <mxGeometry width="50" height="50" relative="1" as="geometry">
            <mxPoint x="1530" y="1282" as="sourcePoint" />
            <mxPoint x="1495" y="1252" as="targetPoint" />
            <Array as="points" />
            <mxPoint as="offset" />
          </mxGeometry>
        </mxCell>
        <mxCell id="EGHb8W3hOEWeccC0JwiV-477" value="" style="endArrow=none;html=1;rounded=0;exitX=0.008;exitY=0.133;exitDx=0;exitDy=0;entryX=0.5;entryY=1;entryDx=0;entryDy=0;exitPerimeter=0;" edge="1" parent="1" source="EGHb8W3hOEWeccC0JwiV-473" target="EGHb8W3hOEWeccC0JwiV-478">
          <mxGeometry width="50" height="50" relative="1" as="geometry">
            <mxPoint x="1445" y="1412" as="sourcePoint" />
            <mxPoint x="1445" y="1392" as="targetPoint" />
            <Array as="points" />
            <mxPoint as="offset" />
          </mxGeometry>
        </mxCell>
        <mxCell id="EGHb8W3hOEWeccC0JwiV-478" value="" style="ellipse;whiteSpace=wrap;html=1;aspect=fixed;rotation=-75;fillColor=#212121;" vertex="1" parent="1">
          <mxGeometry x="1470" y="1272" width="20" height="20" as="geometry" />
        </mxCell>
        <mxCell id="EGHb8W3hOEWeccC0JwiV-479" value="" style="endArrow=none;html=1;rounded=0;exitX=0;exitY=0.25;exitDx=0;exitDy=0;entryX=1;entryY=1;entryDx=0;entryDy=0;" edge="1" parent="1" source="EGHb8W3hOEWeccC0JwiV-473" target="EGHb8W3hOEWeccC0JwiV-480">
          <mxGeometry width="50" height="50" relative="1" as="geometry">
            <mxPoint x="1550" y="1462" as="sourcePoint" />
            <mxPoint x="1550" y="1442" as="targetPoint" />
            <Array as="points" />
            <mxPoint as="offset" />
          </mxGeometry>
        </mxCell>
        <mxCell id="EGHb8W3hOEWeccC0JwiV-480" value="" style="ellipse;whiteSpace=wrap;html=1;aspect=fixed;rotation=-65;" vertex="1" parent="1">
          <mxGeometry x="1470" y="1312" width="20" height="20" as="geometry" />
        </mxCell>
        <mxCell id="EGHb8W3hOEWeccC0JwiV-481" value="" style="endArrow=none;html=1;rounded=0;exitX=0;exitY=0.5;exitDx=0;exitDy=0;entryX=1;entryY=0.5;entryDx=0;entryDy=0;" edge="1" parent="1" source="EGHb8W3hOEWeccC0JwiV-473" target="EGHb8W3hOEWeccC0JwiV-482">
          <mxGeometry width="50" height="50" relative="1" as="geometry">
            <mxPoint x="1610" y="1472" as="sourcePoint" />
            <mxPoint x="1500" y="1352" as="targetPoint" />
            <Array as="points" />
            <mxPoint as="offset" />
          </mxGeometry>
        </mxCell>
        <mxCell id="EGHb8W3hOEWeccC0JwiV-482" value="" style="ellipse;whiteSpace=wrap;html=1;aspect=fixed;rotation=-40;" vertex="1" parent="1">
          <mxGeometry x="1470" y="1352" width="20" height="20" as="geometry" />
        </mxCell>
        <mxCell id="EGHb8W3hOEWeccC0JwiV-483" value="" style="endArrow=none;html=1;rounded=0;exitX=0;exitY=1;exitDx=0;exitDy=0;entryX=1;entryY=0;entryDx=0;entryDy=0;" edge="1" parent="1" source="EGHb8W3hOEWeccC0JwiV-473" target="EGHb8W3hOEWeccC0JwiV-484">
          <mxGeometry width="50" height="50" relative="1" as="geometry">
            <mxPoint x="1710" y="1492" as="sourcePoint" />
            <mxPoint x="1710" y="1472" as="targetPoint" />
            <Array as="points" />
            <mxPoint as="offset" />
          </mxGeometry>
        </mxCell>
        <mxCell id="EGHb8W3hOEWeccC0JwiV-484" value="" style="ellipse;whiteSpace=wrap;html=1;aspect=fixed;rotation=15;" vertex="1" parent="1">
          <mxGeometry x="1490" y="1392" width="20" height="20" as="geometry" />
        </mxCell>
        <mxCell id="EGHb8W3hOEWeccC0JwiV-485" value="Codigo de inmueble" style="text;html=1;align=center;verticalAlign=middle;resizable=0;points=[];autosize=1;strokeColor=none;fillColor=none;" vertex="1" parent="1">
          <mxGeometry x="1335" y="1267" width="130" height="30" as="geometry" />
        </mxCell>
        <mxCell id="EGHb8W3hOEWeccC0JwiV-486" value="Ambientes" style="text;html=1;align=center;verticalAlign=middle;resizable=0;points=[];autosize=1;strokeColor=none;fillColor=none;" vertex="1" parent="1">
          <mxGeometry x="1360" y="1307" width="80" height="30" as="geometry" />
        </mxCell>
        <mxCell id="EGHb8W3hOEWeccC0JwiV-487" value="Balcon" style="text;html=1;align=center;verticalAlign=middle;resizable=0;points=[];autosize=1;strokeColor=none;fillColor=none;" vertex="1" parent="1">
          <mxGeometry x="1380" y="1350" width="60" height="30" as="geometry" />
        </mxCell>
        <mxCell id="EGHb8W3hOEWeccC0JwiV-488" value="Lavadero" style="text;html=1;align=center;verticalAlign=middle;resizable=0;points=[];autosize=1;strokeColor=none;fillColor=none;" vertex="1" parent="1">
          <mxGeometry x="1395" y="1387" width="70" height="30" as="geometry" />
        </mxCell>
        <mxCell id="EGHb8W3hOEWeccC0JwiV-489" value="Baños" style="text;html=1;align=center;verticalAlign=middle;resizable=0;points=[];autosize=1;strokeColor=none;fillColor=none;" vertex="1" parent="1">
          <mxGeometry x="1540" y="1420" width="60" height="30" as="geometry" />
        </mxCell>
        <mxCell id="EGHb8W3hOEWeccC0JwiV-490" value="Alquieres" style="rounded=0;whiteSpace=wrap;html=1;" vertex="1" parent="1">
          <mxGeometry x="1390" y="932" width="120" height="60" as="geometry" />
        </mxCell>
        <mxCell id="EGHb8W3hOEWeccC0JwiV-491" value="Ventas" style="whiteSpace=wrap;html=1;" vertex="1" parent="1">
          <mxGeometry x="1735" y="932" width="120" height="60" as="geometry" />
        </mxCell>
        <mxCell id="EGHb8W3hOEWeccC0JwiV-492" value="es" style="rhombus;whiteSpace=wrap;html=1;" vertex="1" parent="1">
          <mxGeometry x="1525" y="1072" width="50" height="50" as="geometry" />
        </mxCell>
        <mxCell id="EGHb8W3hOEWeccC0JwiV-493" value="" style="endArrow=none;html=1;rounded=0;entryX=0.5;entryY=1;entryDx=0;entryDy=0;exitX=0.5;exitY=0;exitDx=0;exitDy=0;edgeStyle=orthogonalEdgeStyle;curved=1;" edge="1" parent="1" source="EGHb8W3hOEWeccC0JwiV-492" target="EGHb8W3hOEWeccC0JwiV-490">
          <mxGeometry width="50" height="50" relative="1" as="geometry">
            <mxPoint x="1325" y="1102" as="sourcePoint" />
            <mxPoint x="1375" y="1052" as="targetPoint" />
          </mxGeometry>
        </mxCell>
        <mxCell id="EGHb8W3hOEWeccC0JwiV-494" value="" style="endArrow=none;html=1;rounded=0;entryX=0.5;entryY=1;entryDx=0;entryDy=0;exitX=0.5;exitY=0;exitDx=0;exitDy=0;edgeStyle=orthogonalEdgeStyle;curved=1;" edge="1" parent="1" source="EGHb8W3hOEWeccC0JwiV-473" target="EGHb8W3hOEWeccC0JwiV-492">
          <mxGeometry width="50" height="50" relative="1" as="geometry">
            <mxPoint x="1625" y="1261.5" as="sourcePoint" />
            <mxPoint x="1555" y="1172.5" as="targetPoint" />
            <Array as="points">
              <mxPoint x="1610" y="1202" />
              <mxPoint x="1550" y="1202" />
            </Array>
          </mxGeometry>
        </mxCell>
        <mxCell id="EGHb8W3hOEWeccC0JwiV-495" value="es 2" style="rhombus;whiteSpace=wrap;html=1;" vertex="1" parent="1">
          <mxGeometry x="1735" y="1085.5" width="50" height="50" as="geometry" />
        </mxCell>
        <mxCell id="EGHb8W3hOEWeccC0JwiV-496" value="" style="endArrow=none;html=1;rounded=0;entryX=0.5;entryY=1;entryDx=0;entryDy=0;exitX=0.5;exitY=0;exitDx=0;exitDy=0;edgeStyle=orthogonalEdgeStyle;curved=1;" edge="1" parent="1" source="EGHb8W3hOEWeccC0JwiV-495" target="EGHb8W3hOEWeccC0JwiV-491">
          <mxGeometry width="50" height="50" relative="1" as="geometry">
            <mxPoint x="1480" y="1106.5" as="sourcePoint" />
            <mxPoint x="1605" y="996.5" as="targetPoint" />
          </mxGeometry>
        </mxCell>
        <mxCell id="EGHb8W3hOEWeccC0JwiV-497" value="" style="endArrow=none;html=1;rounded=0;entryX=0.5;entryY=1;entryDx=0;entryDy=0;exitX=0.75;exitY=0;exitDx=0;exitDy=0;edgeStyle=orthogonalEdgeStyle;curved=1;" edge="1" parent="1" source="EGHb8W3hOEWeccC0JwiV-473" target="EGHb8W3hOEWeccC0JwiV-495">
          <mxGeometry width="50" height="50" relative="1" as="geometry">
            <mxPoint x="1765" y="1296.5" as="sourcePoint" />
            <mxPoint x="1710" y="1177" as="targetPoint" />
          </mxGeometry>
        </mxCell>
        <mxCell id="EGHb8W3hOEWeccC0JwiV-498" value="0,N" style="text;html=1;align=center;verticalAlign=middle;resizable=0;points=[];autosize=1;strokeColor=none;fillColor=none;" vertex="1" parent="1">
          <mxGeometry x="1635" y="1267" width="40" height="30" as="geometry" />
        </mxCell>
        <mxCell id="EGHb8W3hOEWeccC0JwiV-499" value="1,1" style="text;html=1;align=center;verticalAlign=middle;resizable=0;points=[];autosize=1;strokeColor=none;fillColor=none;" vertex="1" parent="1">
          <mxGeometry x="1795" y="1000" width="40" height="30" as="geometry" />
        </mxCell>
        <mxCell id="EGHb8W3hOEWeccC0JwiV-500" value="0,N" style="text;html=1;align=center;verticalAlign=middle;resizable=0;points=[];autosize=1;strokeColor=none;fillColor=none;" vertex="1" parent="1">
          <mxGeometry x="1575" y="1262" width="40" height="30" as="geometry" />
        </mxCell>
        <mxCell id="EGHb8W3hOEWeccC0JwiV-501" value="1,1" style="text;html=1;align=center;verticalAlign=middle;resizable=0;points=[];autosize=1;strokeColor=none;fillColor=none;" vertex="1" parent="1">
          <mxGeometry x="1465" y="1000" width="40" height="30" as="geometry" />
        </mxCell>
        <mxCell id="EGHb8W3hOEWeccC0JwiV-502" value="vende" style="rhombus;whiteSpace=wrap;html=1;" vertex="1" parent="1">
          <mxGeometry x="1815" y="792" width="50" height="50" as="geometry" />
        </mxCell>
        <mxCell id="EGHb8W3hOEWeccC0JwiV-503" value="" style="endArrow=none;html=1;rounded=0;entryX=0.799;entryY=0.997;entryDx=0;entryDy=0;exitX=0.5;exitY=0;exitDx=0;exitDy=0;edgeStyle=orthogonalEdgeStyle;curved=1;entryPerimeter=0;" edge="1" parent="1" source="EGHb8W3hOEWeccC0JwiV-502" target="EGHb8W3hOEWeccC0JwiV-430">
          <mxGeometry width="50" height="50" relative="1" as="geometry">
            <mxPoint x="1581.6399999999999" y="826.86" as="sourcePoint" />
            <mxPoint x="1685" y="684.9999999999999" as="targetPoint" />
          </mxGeometry>
        </mxCell>
        <mxCell id="EGHb8W3hOEWeccC0JwiV-504" value="" style="endArrow=none;html=1;rounded=0;entryX=0.5;entryY=1;entryDx=0;entryDy=0;exitX=0.5;exitY=0;exitDx=0;exitDy=0;edgeStyle=orthogonalEdgeStyle;curved=1;" edge="1" parent="1" source="EGHb8W3hOEWeccC0JwiV-491" target="EGHb8W3hOEWeccC0JwiV-502">
          <mxGeometry width="50" height="50" relative="1" as="geometry">
            <mxPoint x="1866.6399999999999" y="1016.8599999999999" as="sourcePoint" />
            <mxPoint x="1811.6399999999999" y="897.36" as="targetPoint" />
          </mxGeometry>
        </mxCell>
        <mxCell id="EGHb8W3hOEWeccC0JwiV-505" value="comprar" style="rhombus;whiteSpace=wrap;html=1;" vertex="1" parent="1">
          <mxGeometry x="1615" y="792" width="50" height="50" as="geometry" />
        </mxCell>
        <mxCell id="EGHb8W3hOEWeccC0JwiV-506" value="" style="endArrow=none;html=1;rounded=0;entryX=0.75;entryY=1;entryDx=0;entryDy=0;exitX=0.5;exitY=0;exitDx=0;exitDy=0;edgeStyle=orthogonalEdgeStyle;curved=1;" edge="1" parent="1" source="EGHb8W3hOEWeccC0JwiV-505" target="EGHb8W3hOEWeccC0JwiV-429">
          <mxGeometry width="50" height="50" relative="1" as="geometry">
            <mxPoint x="1477.52" y="931.5" as="sourcePoint" />
            <mxPoint x="1595" y="708.5" as="targetPoint" />
          </mxGeometry>
        </mxCell>
        <mxCell id="EGHb8W3hOEWeccC0JwiV-507" value="" style="endArrow=none;html=1;rounded=0;entryX=0.5;entryY=1;entryDx=0;entryDy=0;exitX=0.306;exitY=-0.017;exitDx=0;exitDy=0;edgeStyle=orthogonalEdgeStyle;curved=1;exitPerimeter=0;" edge="1" parent="1" source="EGHb8W3hOEWeccC0JwiV-491" target="EGHb8W3hOEWeccC0JwiV-505">
          <mxGeometry width="50" height="50" relative="1" as="geometry">
            <mxPoint x="1762.52" y="1121.5" as="sourcePoint" />
            <mxPoint x="1707.52" y="1002" as="targetPoint" />
          </mxGeometry>
        </mxCell>
        <mxCell id="EGHb8W3hOEWeccC0JwiV-508" value="alquila" style="rhombus;whiteSpace=wrap;html=1;" vertex="1" parent="1">
          <mxGeometry x="1275" y="802" width="50" height="50" as="geometry" />
        </mxCell>
        <mxCell id="EGHb8W3hOEWeccC0JwiV-509" value="" style="endArrow=none;html=1;rounded=0;entryX=0.2;entryY=1.017;entryDx=0;entryDy=0;edgeStyle=orthogonalEdgeStyle;curved=1;entryPerimeter=0;exitX=0.5;exitY=0;exitDx=0;exitDy=0;" edge="1" parent="1" source="EGHb8W3hOEWeccC0JwiV-508" target="EGHb8W3hOEWeccC0JwiV-429">
          <mxGeometry width="50" height="50" relative="1" as="geometry">
            <mxPoint x="1385" y="762" as="sourcePoint" />
            <mxPoint x="1340" y="702" as="targetPoint" />
            <Array as="points">
              <mxPoint x="1300" y="792" />
              <mxPoint x="1310" y="792" />
              <mxPoint x="1310" y="762" />
              <mxPoint x="1320" y="762" />
              <mxPoint x="1320" y="782" />
              <mxPoint x="1345" y="782" />
              <mxPoint x="1345" y="752" />
              <mxPoint x="1405" y="752" />
              <mxPoint x="1405" y="722" />
              <mxPoint x="1365" y="722" />
              <mxPoint x="1365" y="673" />
            </Array>
          </mxGeometry>
        </mxCell>
        <mxCell id="EGHb8W3hOEWeccC0JwiV-510" value="" style="endArrow=none;html=1;rounded=0;entryX=0.5;entryY=1;entryDx=0;entryDy=0;exitX=0.097;exitY=0.009;exitDx=0;exitDy=0;edgeStyle=orthogonalEdgeStyle;curved=1;exitPerimeter=0;" edge="1" parent="1" source="EGHb8W3hOEWeccC0JwiV-490" target="EGHb8W3hOEWeccC0JwiV-508">
          <mxGeometry width="50" height="50" relative="1" as="geometry">
            <mxPoint x="1500" y="1002" as="sourcePoint" />
            <mxPoint x="1445" y="882.5" as="targetPoint" />
            <Array as="points">
              <mxPoint x="1405" y="933" />
              <mxPoint x="1405" y="872" />
              <mxPoint x="1355" y="872" />
              <mxPoint x="1355" y="852" />
              <mxPoint x="1335" y="852" />
              <mxPoint x="1335" y="882" />
              <mxPoint x="1300" y="882" />
            </Array>
          </mxGeometry>
        </mxCell>
        <mxCell id="EGHb8W3hOEWeccC0JwiV-511" value="alquila" style="rhombus;whiteSpace=wrap;html=1;" vertex="1" parent="1">
          <mxGeometry x="1440" y="792" width="50" height="50" as="geometry" />
        </mxCell>
        <mxCell id="EGHb8W3hOEWeccC0JwiV-512" value="" style="endArrow=none;html=1;rounded=0;exitX=0.5;exitY=0;exitDx=0;exitDy=0;edgeStyle=orthogonalEdgeStyle;curved=1;entryX=0.5;entryY=1;entryDx=0;entryDy=0;" edge="1" parent="1" source="EGHb8W3hOEWeccC0JwiV-511" target="EGHb8W3hOEWeccC0JwiV-430">
          <mxGeometry width="50" height="50" relative="1" as="geometry">
            <mxPoint x="1321.6399999999999" y="798.84" as="sourcePoint" />
            <mxPoint x="1351.04" y="642" as="targetPoint" />
            <Array as="points">
              <mxPoint x="1470" y="752" />
              <mxPoint x="1585" y="752" />
            </Array>
          </mxGeometry>
        </mxCell>
        <mxCell id="EGHb8W3hOEWeccC0JwiV-513" value="" style="endArrow=none;html=1;rounded=0;entryX=0.5;entryY=1;entryDx=0;entryDy=0;edgeStyle=orthogonalEdgeStyle;curved=1;" edge="1" parent="1" target="EGHb8W3hOEWeccC0JwiV-511">
          <mxGeometry width="50" height="50" relative="1" as="geometry">
            <mxPoint x="1465" y="932" as="sourcePoint" />
            <mxPoint x="1551.6399999999999" y="869.34" as="targetPoint" />
            <Array as="points">
              <mxPoint x="1458" y="932" />
              <mxPoint x="1475" y="932" />
              <mxPoint x="1475" y="892" />
              <mxPoint x="1505" y="892" />
              <mxPoint x="1505" y="852" />
              <mxPoint x="1470" y="852" />
            </Array>
          </mxGeometry>
        </mxCell>
        <mxCell id="EGHb8W3hOEWeccC0JwiV-514" value="0,N" style="text;html=1;align=center;verticalAlign=middle;resizable=0;points=[];autosize=1;strokeColor=none;fillColor=none;" vertex="1" parent="1">
          <mxGeometry x="1545" y="680" width="40" height="30" as="geometry" />
        </mxCell>
        <mxCell id="EGHb8W3hOEWeccC0JwiV-515" value="0,N" style="text;html=1;align=center;verticalAlign=middle;resizable=0;points=[];autosize=1;strokeColor=none;fillColor=none;" vertex="1" parent="1">
          <mxGeometry x="1625" y="680" width="40" height="30" as="geometry" />
        </mxCell>
        <mxCell id="EGHb8W3hOEWeccC0JwiV-516" value="0,N" style="text;html=1;align=center;verticalAlign=middle;resizable=0;points=[];autosize=1;strokeColor=none;fillColor=none;" vertex="1" parent="1">
          <mxGeometry x="1360" y="680" width="40" height="30" as="geometry" />
        </mxCell>
        <mxCell id="EGHb8W3hOEWeccC0JwiV-517" value="0,N" style="text;html=1;align=center;verticalAlign=middle;resizable=0;points=[];autosize=1;strokeColor=none;fillColor=none;" vertex="1" parent="1">
          <mxGeometry x="1420" y="727" width="40" height="30" as="geometry" />
        </mxCell>
        <mxCell id="EGHb8W3hOEWeccC0JwiV-518" value="1,1" style="text;html=1;align=center;verticalAlign=middle;resizable=0;points=[];autosize=1;strokeColor=none;fillColor=none;" vertex="1" parent="1">
          <mxGeometry x="1375" y="900" width="40" height="30" as="geometry" />
        </mxCell>
        <mxCell id="EGHb8W3hOEWeccC0JwiV-519" value="1,1" style="text;html=1;align=center;verticalAlign=middle;resizable=0;points=[];autosize=1;strokeColor=none;fillColor=none;" vertex="1" parent="1">
          <mxGeometry x="1470" y="902" width="40" height="30" as="geometry" />
        </mxCell>
        <mxCell id="EGHb8W3hOEWeccC0JwiV-520" value="1,1" style="text;html=1;align=center;verticalAlign=middle;resizable=0;points=[];autosize=1;strokeColor=none;fillColor=none;" vertex="1" parent="1">
          <mxGeometry x="1735" y="900" width="40" height="30" as="geometry" />
        </mxCell>
        <mxCell id="EGHb8W3hOEWeccC0JwiV-521" value="1,1" style="text;html=1;align=center;verticalAlign=middle;resizable=0;points=[];autosize=1;strokeColor=none;fillColor=none;" vertex="1" parent="1">
          <mxGeometry x="1790" y="908" width="40" height="30" as="geometry" />
        </mxCell>
        <mxCell id="EGHb8W3hOEWeccC0JwiV-522" value="Tipos" style="rounded=0;whiteSpace=wrap;html=1;" vertex="1" parent="1">
          <mxGeometry x="1905" y="1290" width="120" height="60" as="geometry" />
        </mxCell>
        <mxCell id="EGHb8W3hOEWeccC0JwiV-523" value="Tiene" style="rhombus;whiteSpace=wrap;html=1;" vertex="1" parent="1">
          <mxGeometry x="1785" y="1297" width="50" height="49" as="geometry" />
        </mxCell>
        <mxCell id="EGHb8W3hOEWeccC0JwiV-524" value="" style="endArrow=none;html=1;rounded=0;entryX=0;entryY=0.5;entryDx=0;entryDy=0;exitX=1;exitY=0.5;exitDx=0;exitDy=0;" edge="1" parent="1" source="EGHb8W3hOEWeccC0JwiV-473" target="EGHb8W3hOEWeccC0JwiV-523">
          <mxGeometry width="50" height="50" relative="1" as="geometry">
            <mxPoint x="1765" y="1362" as="sourcePoint" />
            <mxPoint x="1815" y="1312" as="targetPoint" />
          </mxGeometry>
        </mxCell>
        <mxCell id="EGHb8W3hOEWeccC0JwiV-525" value="" style="endArrow=none;html=1;rounded=0;entryX=0;entryY=0.5;entryDx=0;entryDy=0;exitX=1;exitY=0.5;exitDx=0;exitDy=0;" edge="1" parent="1" source="EGHb8W3hOEWeccC0JwiV-523" target="EGHb8W3hOEWeccC0JwiV-522">
          <mxGeometry width="50" height="50" relative="1" as="geometry">
            <mxPoint x="1845" y="1402" as="sourcePoint" />
            <mxPoint x="1895" y="1352" as="targetPoint" />
          </mxGeometry>
        </mxCell>
        <mxCell id="EGHb8W3hOEWeccC0JwiV-526" value="" style="endArrow=none;html=1;rounded=0;exitX=0.75;exitY=0;exitDx=0;exitDy=0;entryX=0.5;entryY=1;entryDx=0;entryDy=0;" edge="1" parent="1" source="EGHb8W3hOEWeccC0JwiV-522" target="EGHb8W3hOEWeccC0JwiV-527">
          <mxGeometry width="50" height="50" relative="1" as="geometry">
            <mxPoint x="1965" y="1292" as="sourcePoint" />
            <mxPoint x="1995" y="1262" as="targetPoint" />
          </mxGeometry>
        </mxCell>
        <mxCell id="EGHb8W3hOEWeccC0JwiV-527" value="" style="ellipse;whiteSpace=wrap;html=1;aspect=fixed;fillColor=#191919;" vertex="1" parent="1">
          <mxGeometry x="1985" y="1247" width="20" height="20" as="geometry" />
        </mxCell>
        <mxCell id="EGHb8W3hOEWeccC0JwiV-528" value="Nombre" style="text;html=1;align=center;verticalAlign=middle;resizable=0;points=[];autosize=1;strokeColor=none;fillColor=none;" vertex="1" parent="1">
          <mxGeometry x="1960" y="1217" width="70" height="30" as="geometry" />
        </mxCell>
        <mxCell id="EGHb8W3hOEWeccC0JwiV-529" value="1,N" style="text;html=1;align=center;verticalAlign=middle;resizable=0;points=[];autosize=1;strokeColor=none;fillColor=none;" vertex="1" parent="1">
          <mxGeometry x="1855" y="1290" width="40" height="30" as="geometry" />
        </mxCell>
        <mxCell id="EGHb8W3hOEWeccC0JwiV-530" value="1,1" style="text;html=1;align=center;verticalAlign=middle;resizable=0;points=[];autosize=1;strokeColor=none;fillColor=none;" vertex="1" parent="1">
          <mxGeometry x="1670" y="1297" width="40" height="30" as="geometry" />
        </mxCell>
        <mxCell id="EGHb8W3hOEWeccC0JwiV-531" value="Direccion" style="ellipse;whiteSpace=wrap;html=1;" vertex="1" parent="1">
          <mxGeometry x="1455" y="1222" width="60" height="30" as="geometry" />
        </mxCell>
        <mxCell id="EGHb8W3hOEWeccC0JwiV-532" value="Trabaja" style="rhombus;whiteSpace=wrap;html=1;" vertex="1" parent="1">
          <mxGeometry x="1830" y="618" width="65" height="48" as="geometry" />
        </mxCell>
        <mxCell id="EGHb8W3hOEWeccC0JwiV-533" value="" style="endArrow=none;html=1;rounded=0;entryX=0;entryY=0.5;entryDx=0;entryDy=0;exitX=1;exitY=0.5;exitDx=0;exitDy=0;" edge="1" parent="1" source="EGHb8W3hOEWeccC0JwiV-430" target="EGHb8W3hOEWeccC0JwiV-532">
          <mxGeometry width="50" height="50" relative="1" as="geometry">
            <mxPoint x="1775" y="672" as="sourcePoint" />
            <mxPoint x="1825" y="622" as="targetPoint" />
          </mxGeometry>
        </mxCell>
        <mxCell id="EGHb8W3hOEWeccC0JwiV-534" value="" style="endArrow=none;html=1;rounded=0;entryX=0;entryY=0.5;entryDx=0;entryDy=0;exitX=1;exitY=0.5;exitDx=0;exitDy=0;" edge="1" parent="1" source="EGHb8W3hOEWeccC0JwiV-532" target="EGHb8W3hOEWeccC0JwiV-448">
          <mxGeometry width="50" height="50" relative="1" as="geometry">
            <mxPoint x="1965" y="722" as="sourcePoint" />
            <mxPoint x="2015" y="672" as="targetPoint" />
          </mxGeometry>
        </mxCell>
        <mxCell id="EGHb8W3hOEWeccC0JwiV-535" value="1,N" style="text;html=1;align=center;verticalAlign=middle;resizable=0;points=[];autosize=1;strokeColor=none;fillColor=none;" vertex="1" parent="1">
          <mxGeometry x="1655" y="640" width="40" height="30" as="geometry" />
        </mxCell>
        <mxCell id="EGHb8W3hOEWeccC0JwiV-536" value="1,N" style="text;html=1;align=center;verticalAlign=middle;resizable=0;points=[];autosize=1;strokeColor=none;fillColor=none;" vertex="1" parent="1">
          <mxGeometry x="2005" y="642" width="40" height="30" as="geometry" />
        </mxCell>
        <mxCell id="EGHb8W3hOEWeccC0JwiV-537" value="" style="endArrow=none;html=1;rounded=0;exitX=0.5;exitY=0;exitDx=0;exitDy=0;entryX=0.5;entryY=1;entryDx=0;entryDy=0;" edge="1" parent="1" source="EGHb8W3hOEWeccC0JwiV-532" target="EGHb8W3hOEWeccC0JwiV-538">
          <mxGeometry width="50" height="50" relative="1" as="geometry">
            <mxPoint x="1805" y="612" as="sourcePoint" />
            <mxPoint x="1865" y="592" as="targetPoint" />
          </mxGeometry>
        </mxCell>
        <mxCell id="EGHb8W3hOEWeccC0JwiV-538" value="" style="ellipse;whiteSpace=wrap;html=1;aspect=fixed;" vertex="1" parent="1">
          <mxGeometry x="1854" y="584" width="17" height="17" as="geometry" />
        </mxCell>
        <mxCell id="EGHb8W3hOEWeccC0JwiV-539" value="" style="endArrow=none;html=1;rounded=0;entryX=0.5;entryY=1;entryDx=0;entryDy=0;exitX=0.5;exitY=0;exitDx=0;exitDy=0;" edge="1" parent="1" source="EGHb8W3hOEWeccC0JwiV-540" target="EGHb8W3hOEWeccC0JwiV-532">
          <mxGeometry width="50" height="50" relative="1" as="geometry">
            <mxPoint x="1863" y="682" as="sourcePoint" />
            <mxPoint x="1895" y="682" as="targetPoint" />
          </mxGeometry>
        </mxCell>
        <mxCell id="EGHb8W3hOEWeccC0JwiV-540" value="" style="ellipse;whiteSpace=wrap;html=1;aspect=fixed;" vertex="1" parent="1">
          <mxGeometry x="1855" y="687.5" width="14.5" height="14.5" as="geometry" />
        </mxCell>
        <mxCell id="EGHb8W3hOEWeccC0JwiV-541" value="Fecha inicio" style="text;html=1;align=center;verticalAlign=middle;resizable=0;points=[];autosize=1;strokeColor=none;fillColor=none;" vertex="1" parent="1">
          <mxGeometry x="1817.5" y="557" width="90" height="30" as="geometry" />
        </mxCell>
        <mxCell id="EGHb8W3hOEWeccC0JwiV-542" value="Fecha fin" style="text;html=1;align=center;verticalAlign=middle;resizable=0;points=[];autosize=1;strokeColor=none;fillColor=none;" vertex="1" parent="1">
          <mxGeometry x="1825" y="697" width="70" height="30" as="geometry" />
        </mxCell>
        <mxCell id="EGHb8W3hOEWeccC0JwiV-543" value="" style="endArrow=none;html=1;rounded=0;entryX=0;entryY=0.5;entryDx=0;entryDy=0;exitX=1;exitY=0.5;exitDx=0;exitDy=0;" edge="1" parent="1" source="EGHb8W3hOEWeccC0JwiV-544" target="EGHb8W3hOEWeccC0JwiV-531">
          <mxGeometry width="50" height="50" relative="1" as="geometry">
            <mxPoint x="1435" y="1237" as="sourcePoint" />
            <mxPoint x="1435" y="1202" as="targetPoint" />
          </mxGeometry>
        </mxCell>
        <mxCell id="EGHb8W3hOEWeccC0JwiV-544" value="" style="ellipse;whiteSpace=wrap;html=1;aspect=fixed;" vertex="1" parent="1">
          <mxGeometry x="1420" y="1229.5" width="15" height="15" as="geometry" />
        </mxCell>
        <mxCell id="EGHb8W3hOEWeccC0JwiV-545" value="" style="endArrow=none;html=1;rounded=0;entryX=0;entryY=0;entryDx=0;entryDy=0;exitX=1;exitY=1;exitDx=0;exitDy=0;" edge="1" parent="1" source="EGHb8W3hOEWeccC0JwiV-546" target="EGHb8W3hOEWeccC0JwiV-531">
          <mxGeometry width="50" height="50" relative="1" as="geometry">
            <mxPoint x="1435" y="1209.5" as="sourcePoint" />
            <mxPoint x="1455" y="1209.5" as="targetPoint" />
          </mxGeometry>
        </mxCell>
        <mxCell id="EGHb8W3hOEWeccC0JwiV-546" value="" style="ellipse;whiteSpace=wrap;html=1;aspect=fixed;" vertex="1" parent="1">
          <mxGeometry x="1420" y="1202" width="15" height="15" as="geometry" />
        </mxCell>
        <mxCell id="EGHb8W3hOEWeccC0JwiV-547" value="" style="endArrow=none;html=1;rounded=0;exitX=1;exitY=1;exitDx=0;exitDy=0;entryX=0.5;entryY=0;entryDx=0;entryDy=0;" edge="1" parent="1" source="EGHb8W3hOEWeccC0JwiV-548" target="EGHb8W3hOEWeccC0JwiV-531">
          <mxGeometry width="50" height="50" relative="1" as="geometry">
            <mxPoint x="1455" y="1189.5" as="sourcePoint" />
            <mxPoint x="1475" y="1190" as="targetPoint" />
          </mxGeometry>
        </mxCell>
        <mxCell id="EGHb8W3hOEWeccC0JwiV-548" value="" style="ellipse;whiteSpace=wrap;html=1;aspect=fixed;" vertex="1" parent="1">
          <mxGeometry x="1440" y="1182" width="15" height="15" as="geometry" />
        </mxCell>
        <mxCell id="EGHb8W3hOEWeccC0JwiV-549" value="Nro" style="text;html=1;align=center;verticalAlign=middle;resizable=0;points=[];autosize=1;strokeColor=none;fillColor=none;" vertex="1" parent="1">
          <mxGeometry x="1375" y="1222" width="40" height="30" as="geometry" />
        </mxCell>
        <mxCell id="EGHb8W3hOEWeccC0JwiV-550" value="Calle" style="text;html=1;align=center;verticalAlign=middle;resizable=0;points=[];autosize=1;strokeColor=none;fillColor=none;" vertex="1" parent="1">
          <mxGeometry x="1370" y="1194.5" width="50" height="30" as="geometry" />
        </mxCell>
        <mxCell id="EGHb8W3hOEWeccC0JwiV-551" value="Piso" style="text;html=1;align=center;verticalAlign=middle;resizable=0;points=[];autosize=1;strokeColor=none;fillColor=none;" vertex="1" parent="1">
          <mxGeometry x="1395" y="1164.5" width="50" height="30" as="geometry" />
        </mxCell>
        <mxCell id="EGHb8W3hOEWeccC0JwiV-552" value="" style="endArrow=none;html=1;rounded=0;entryX=1;entryY=0;entryDx=0;entryDy=0;exitX=1;exitY=1;exitDx=0;exitDy=0;" edge="1" parent="1" source="EGHb8W3hOEWeccC0JwiV-553" target="EGHb8W3hOEWeccC0JwiV-531">
          <mxGeometry width="50" height="50" relative="1" as="geometry">
            <mxPoint x="1487.5" y="1179.5" as="sourcePoint" />
            <mxPoint x="1507.5" y="1179.5" as="targetPoint" />
          </mxGeometry>
        </mxCell>
        <mxCell id="EGHb8W3hOEWeccC0JwiV-553" value="" style="ellipse;whiteSpace=wrap;html=1;aspect=fixed;" vertex="1" parent="1">
          <mxGeometry x="1472.5" y="1172" width="15" height="15" as="geometry" />
        </mxCell>
        <mxCell id="EGHb8W3hOEWeccC0JwiV-554" value="Dpto" style="text;html=1;align=center;verticalAlign=middle;resizable=0;points=[];autosize=1;strokeColor=none;fillColor=none;" vertex="1" parent="1">
          <mxGeometry x="1445" y="1142" width="50" height="30" as="geometry" />
        </mxCell>
        <mxCell id="EGHb8W3hOEWeccC0JwiV-555" value="Direccion" style="ellipse;whiteSpace=wrap;html=1;" vertex="1" parent="1">
          <mxGeometry x="1515" y="412" width="60" height="30" as="geometry" />
        </mxCell>
        <mxCell id="EGHb8W3hOEWeccC0JwiV-556" value="" style="endArrow=none;html=1;rounded=0;entryX=0;entryY=0.5;entryDx=0;entryDy=0;exitX=1;exitY=0.5;exitDx=0;exitDy=0;" edge="1" parent="1" source="EGHb8W3hOEWeccC0JwiV-557" target="EGHb8W3hOEWeccC0JwiV-555">
          <mxGeometry width="50" height="50" relative="1" as="geometry">
            <mxPoint x="1495" y="427" as="sourcePoint" />
            <mxPoint x="1495" y="392" as="targetPoint" />
          </mxGeometry>
        </mxCell>
        <mxCell id="EGHb8W3hOEWeccC0JwiV-557" value="" style="ellipse;whiteSpace=wrap;html=1;aspect=fixed;" vertex="1" parent="1">
          <mxGeometry x="1480" y="419.5" width="15" height="15" as="geometry" />
        </mxCell>
        <mxCell id="EGHb8W3hOEWeccC0JwiV-558" value="" style="endArrow=none;html=1;rounded=0;entryX=0;entryY=0;entryDx=0;entryDy=0;exitX=1;exitY=1;exitDx=0;exitDy=0;" edge="1" parent="1" source="EGHb8W3hOEWeccC0JwiV-559" target="EGHb8W3hOEWeccC0JwiV-555">
          <mxGeometry width="50" height="50" relative="1" as="geometry">
            <mxPoint x="1495" y="399.5" as="sourcePoint" />
            <mxPoint x="1515" y="399.5" as="targetPoint" />
          </mxGeometry>
        </mxCell>
        <mxCell id="EGHb8W3hOEWeccC0JwiV-559" value="" style="ellipse;whiteSpace=wrap;html=1;aspect=fixed;" vertex="1" parent="1">
          <mxGeometry x="1480" y="392" width="15" height="15" as="geometry" />
        </mxCell>
        <mxCell id="EGHb8W3hOEWeccC0JwiV-560" value="" style="endArrow=none;html=1;rounded=0;exitX=1;exitY=1;exitDx=0;exitDy=0;entryX=0.5;entryY=0;entryDx=0;entryDy=0;" edge="1" parent="1" source="EGHb8W3hOEWeccC0JwiV-561" target="EGHb8W3hOEWeccC0JwiV-555">
          <mxGeometry width="50" height="50" relative="1" as="geometry">
            <mxPoint x="1515" y="379.5" as="sourcePoint" />
            <mxPoint x="1535" y="380" as="targetPoint" />
          </mxGeometry>
        </mxCell>
        <mxCell id="EGHb8W3hOEWeccC0JwiV-561" value="" style="ellipse;whiteSpace=wrap;html=1;aspect=fixed;" vertex="1" parent="1">
          <mxGeometry x="1500" y="372" width="15" height="15" as="geometry" />
        </mxCell>
        <mxCell id="EGHb8W3hOEWeccC0JwiV-562" value="Nro" style="text;html=1;align=center;verticalAlign=middle;resizable=0;points=[];autosize=1;strokeColor=none;fillColor=none;" vertex="1" parent="1">
          <mxGeometry x="1435" y="412" width="40" height="30" as="geometry" />
        </mxCell>
        <mxCell id="EGHb8W3hOEWeccC0JwiV-563" value="Calle" style="text;html=1;align=center;verticalAlign=middle;resizable=0;points=[];autosize=1;strokeColor=none;fillColor=none;" vertex="1" parent="1">
          <mxGeometry x="1430" y="384.5" width="50" height="30" as="geometry" />
        </mxCell>
        <mxCell id="EGHb8W3hOEWeccC0JwiV-564" value="Piso" style="text;html=1;align=center;verticalAlign=middle;resizable=0;points=[];autosize=1;strokeColor=none;fillColor=none;" vertex="1" parent="1">
          <mxGeometry x="1455" y="354.5" width="50" height="30" as="geometry" />
        </mxCell>
        <mxCell id="EGHb8W3hOEWeccC0JwiV-565" value="" style="endArrow=none;html=1;rounded=0;entryX=1;entryY=0;entryDx=0;entryDy=0;exitX=1;exitY=1;exitDx=0;exitDy=0;" edge="1" parent="1" source="EGHb8W3hOEWeccC0JwiV-566" target="EGHb8W3hOEWeccC0JwiV-555">
          <mxGeometry width="50" height="50" relative="1" as="geometry">
            <mxPoint x="1547.5" y="369.5" as="sourcePoint" />
            <mxPoint x="1567.5" y="369.5" as="targetPoint" />
          </mxGeometry>
        </mxCell>
        <mxCell id="EGHb8W3hOEWeccC0JwiV-566" value="" style="ellipse;whiteSpace=wrap;html=1;aspect=fixed;" vertex="1" parent="1">
          <mxGeometry x="1532.5" y="362" width="15" height="15" as="geometry" />
        </mxCell>
        <mxCell id="EGHb8W3hOEWeccC0JwiV-567" value="Dpto" style="text;html=1;align=center;verticalAlign=middle;resizable=0;points=[];autosize=1;strokeColor=none;fillColor=none;" vertex="1" parent="1">
          <mxGeometry x="1505" y="332" width="50" height="30" as="geometry" />
        </mxCell>
        <mxCell id="EGHb8W3hOEWeccC0JwiV-568" value="" style="endArrow=none;html=1;rounded=0;exitX=1;exitY=0.5;exitDx=0;exitDy=0;edgeStyle=orthogonalEdgeStyle;curved=1;entryX=0.047;entryY=-0.089;entryDx=0;entryDy=0;entryPerimeter=0;" edge="1" parent="1" source="EGHb8W3hOEWeccC0JwiV-569" target="EGHb8W3hOEWeccC0JwiV-516">
          <mxGeometry width="50" height="50" relative="1" as="geometry">
            <mxPoint x="1235" y="827" as="sourcePoint" />
            <mxPoint x="1335" y="702" as="targetPoint" />
            <Array as="points">
              <mxPoint x="1305" y="960" />
              <mxPoint x="1305" y="882" />
              <mxPoint x="1265" y="882" />
              <mxPoint x="1265" y="722" />
              <mxPoint x="1336" y="722" />
              <mxPoint x="1336" y="702" />
              <mxPoint x="1362" y="702" />
            </Array>
          </mxGeometry>
        </mxCell>
        <mxCell id="EGHb8W3hOEWeccC0JwiV-569" value="" style="ellipse;whiteSpace=wrap;html=1;aspect=fixed;rotation=-80;fillColor=#0A0A0A;" vertex="1" parent="1">
          <mxGeometry x="1301.83" y="960.17" width="10" height="10" as="geometry" />
        </mxCell>
        <mxCell id="EGHb8W3hOEWeccC0JwiV-570" value="" style="endArrow=none;html=1;rounded=0;entryX=0;entryY=0.5;entryDx=0;entryDy=0;exitX=1;exitY=0.5;exitDx=0;exitDy=0;" edge="1" parent="1" source="EGHb8W3hOEWeccC0JwiV-571" target="EGHb8W3hOEWeccC0JwiV-490">
          <mxGeometry width="50" height="50" relative="1" as="geometry">
            <mxPoint x="1365" y="962" as="sourcePoint" />
            <mxPoint x="1335" y="932" as="targetPoint" />
          </mxGeometry>
        </mxCell>
        <mxCell id="EGHb8W3hOEWeccC0JwiV-571" value="" style="ellipse;whiteSpace=wrap;html=1;aspect=fixed;rotation=15;" vertex="1" parent="1">
          <mxGeometry x="1277" y="938" width="18" height="18" as="geometry" />
        </mxCell>
        <mxCell id="EGHb8W3hOEWeccC0JwiV-572" value="" style="endArrow=none;html=1;rounded=0;entryX=0;entryY=0.75;entryDx=0;entryDy=0;exitX=1;exitY=0;exitDx=0;exitDy=0;" edge="1" parent="1" source="EGHb8W3hOEWeccC0JwiV-573" target="EGHb8W3hOEWeccC0JwiV-490">
          <mxGeometry width="50" height="50" relative="1" as="geometry">
            <mxPoint x="1355" y="1002" as="sourcePoint" />
            <mxPoint x="1375" y="1032" as="targetPoint" />
          </mxGeometry>
        </mxCell>
        <mxCell id="EGHb8W3hOEWeccC0JwiV-573" value="" style="ellipse;whiteSpace=wrap;html=1;aspect=fixed;rotation=35;" vertex="1" parent="1">
          <mxGeometry x="1325" y="1005" width="20" height="20" as="geometry" />
        </mxCell>
        <mxCell id="EGHb8W3hOEWeccC0JwiV-574" value="" style="ellipse;whiteSpace=wrap;html=1;aspect=fixed;rotation=15;" vertex="1" parent="1">
          <mxGeometry x="1350" y="1035" width="20" height="20" as="geometry" />
        </mxCell>
        <mxCell id="EGHb8W3hOEWeccC0JwiV-575" value="" style="endArrow=none;html=1;rounded=0;entryX=0;entryY=1;entryDx=0;entryDy=0;exitX=1;exitY=0;exitDx=0;exitDy=0;" edge="1" parent="1" source="EGHb8W3hOEWeccC0JwiV-574" target="EGHb8W3hOEWeccC0JwiV-490">
          <mxGeometry width="50" height="50" relative="1" as="geometry">
            <mxPoint x="1245" y="1052" as="sourcePoint" />
            <mxPoint x="1295" y="1002" as="targetPoint" />
          </mxGeometry>
        </mxCell>
        <mxCell id="EGHb8W3hOEWeccC0JwiV-576" value="Fecha de inicio" style="text;html=1;align=center;verticalAlign=middle;resizable=0;points=[];autosize=1;strokeColor=none;fillColor=none;" vertex="1" parent="1">
          <mxGeometry x="1180" y="932" width="100" height="30" as="geometry" />
        </mxCell>
        <mxCell id="EGHb8W3hOEWeccC0JwiV-577" value="Fin de fecha" style="text;html=1;align=center;verticalAlign=middle;resizable=0;points=[];autosize=1;strokeColor=none;fillColor=none;" vertex="1" parent="1">
          <mxGeometry x="1241" y="1005" width="90" height="30" as="geometry" />
        </mxCell>
        <mxCell id="EGHb8W3hOEWeccC0JwiV-578" value="Precio" style="text;html=1;align=center;verticalAlign=middle;resizable=0;points=[];autosize=1;strokeColor=none;fillColor=none;" vertex="1" parent="1">
          <mxGeometry x="1300" y="1030" width="60" height="30" as="geometry" />
        </mxCell>
        <mxCell id="EGHb8W3hOEWeccC0JwiV-579" value="" style="endArrow=none;html=1;rounded=0;entryX=1.023;entryY=0.089;entryDx=0;entryDy=0;exitX=1;exitY=0.5;exitDx=0;exitDy=0;entryPerimeter=0;" edge="1" parent="1" source="EGHb8W3hOEWeccC0JwiV-580" target="EGHb8W3hOEWeccC0JwiV-491">
          <mxGeometry width="50" height="50" relative="1" as="geometry">
            <mxPoint x="1930" y="932" as="sourcePoint" />
            <mxPoint x="1955" y="932" as="targetPoint" />
          </mxGeometry>
        </mxCell>
        <mxCell id="EGHb8W3hOEWeccC0JwiV-580" value="" style="ellipse;whiteSpace=wrap;html=1;aspect=fixed;rotation=-195;" vertex="1" parent="1">
          <mxGeometry x="1895" y="914" width="18" height="18" as="geometry" />
        </mxCell>
        <mxCell id="EGHb8W3hOEWeccC0JwiV-581" value="" style="endArrow=none;html=1;rounded=0;entryX=0;entryY=0.75;entryDx=0;entryDy=0;exitX=0.5;exitY=1;exitDx=0;exitDy=0;" edge="1" parent="1" source="EGHb8W3hOEWeccC0JwiV-596" target="EGHb8W3hOEWeccC0JwiV-491">
          <mxGeometry width="50" height="50" relative="1" as="geometry">
            <mxPoint x="2010" y="980.5" as="sourcePoint" />
            <mxPoint x="2045" y="955.5" as="targetPoint" />
          </mxGeometry>
        </mxCell>
        <mxCell id="EGHb8W3hOEWeccC0JwiV-582" value="" style="ellipse;whiteSpace=wrap;html=1;aspect=fixed;rotation=35;" vertex="1" parent="1">
          <mxGeometry x="1665" y="973.97" width="22.4" height="22.4" as="geometry" />
        </mxCell>
        <mxCell id="EGHb8W3hOEWeccC0JwiV-583" value="" style="ellipse;whiteSpace=wrap;html=1;aspect=fixed;rotation=-135;" vertex="1" parent="1">
          <mxGeometry x="1887.5" y="955.17" width="20" height="20" as="geometry" />
        </mxCell>
        <mxCell id="EGHb8W3hOEWeccC0JwiV-584" value="" style="endArrow=none;html=1;rounded=0;entryX=1;entryY=0.5;entryDx=0;entryDy=0;exitX=1;exitY=0;exitDx=0;exitDy=0;" edge="1" parent="1" source="EGHb8W3hOEWeccC0JwiV-583" target="EGHb8W3hOEWeccC0JwiV-491">
          <mxGeometry width="50" height="50" relative="1" as="geometry">
            <mxPoint x="1900" y="1030.5" as="sourcePoint" />
            <mxPoint x="2045" y="970.5" as="targetPoint" />
          </mxGeometry>
        </mxCell>
        <mxCell id="EGHb8W3hOEWeccC0JwiV-585" value="Fecha&amp;nbsp;" style="text;html=1;align=center;verticalAlign=middle;resizable=0;points=[];autosize=1;strokeColor=none;fillColor=none;" vertex="1" parent="1">
          <mxGeometry x="1610" y="933.67" width="60" height="30" as="geometry" />
        </mxCell>
        <mxCell id="EGHb8W3hOEWeccC0JwiV-586" value="Hora" style="text;html=1;align=center;verticalAlign=middle;resizable=0;points=[];autosize=1;strokeColor=none;fillColor=none;" vertex="1" parent="1">
          <mxGeometry x="1620" y="970.1700000000001" width="50" height="30" as="geometry" />
        </mxCell>
        <mxCell id="EGHb8W3hOEWeccC0JwiV-587" value="Precio" style="text;html=1;align=center;verticalAlign=middle;resizable=0;points=[];autosize=1;strokeColor=none;fillColor=none;" vertex="1" parent="1">
          <mxGeometry x="1900" y="947" width="60" height="30" as="geometry" />
        </mxCell>
        <mxCell id="EGHb8W3hOEWeccC0JwiV-588" value="" style="endArrow=none;html=1;rounded=0;exitX=0.5;exitY=0;exitDx=0;exitDy=0;entryX=0;entryY=1;entryDx=0;entryDy=0;" edge="1" parent="1" source="EGHb8W3hOEWeccC0JwiV-594" target="EGHb8W3hOEWeccC0JwiV-589">
          <mxGeometry width="50" height="50" relative="1" as="geometry">
            <mxPoint x="1660" y="937.5" as="sourcePoint" />
            <mxPoint x="1695" y="937.5" as="targetPoint" />
          </mxGeometry>
        </mxCell>
        <mxCell id="EGHb8W3hOEWeccC0JwiV-589" value="" style="ellipse;whiteSpace=wrap;html=1;aspect=fixed;rotation=-145;" vertex="1" parent="1">
          <mxGeometry x="1655.5" y="937.17" width="23" height="23" as="geometry" />
        </mxCell>
        <mxCell id="EGHb8W3hOEWeccC0JwiV-590" value="Comicion" style="text;html=1;align=center;verticalAlign=middle;resizable=0;points=[];autosize=1;strokeColor=none;fillColor=none;" vertex="1" parent="1">
          <mxGeometry x="1910.37" y="907.17" width="70" height="30" as="geometry" />
        </mxCell>
        <mxCell id="EGHb8W3hOEWeccC0JwiV-591" value="" style="endArrow=none;html=1;rounded=0;edgeStyle=orthogonalEdgeStyle;curved=1;exitX=1;exitY=0.5;exitDx=0;exitDy=0;" edge="1" parent="1" source="EGHb8W3hOEWeccC0JwiV-592">
          <mxGeometry width="50" height="50" relative="1" as="geometry">
            <mxPoint x="1715" y="992" as="sourcePoint" />
            <mxPoint x="1595" y="742" as="targetPoint" />
            <Array as="points">
              <mxPoint x="1716" y="992" />
              <mxPoint x="1705" y="992" />
              <mxPoint x="1705" y="922" />
              <mxPoint x="1635" y="922" />
              <mxPoint x="1635" y="852" />
              <mxPoint x="1575" y="852" />
              <mxPoint x="1575" y="812" />
              <mxPoint x="1595" y="812" />
            </Array>
          </mxGeometry>
        </mxCell>
        <mxCell id="EGHb8W3hOEWeccC0JwiV-592" value="" style="ellipse;whiteSpace=wrap;html=1;aspect=fixed;rotation=-80;fillColor=#0A0A0A;" vertex="1" parent="1">
          <mxGeometry x="1710" y="1000" width="10" height="10" as="geometry" />
        </mxCell>
        <mxCell id="EGHb8W3hOEWeccC0JwiV-593" value="" style="endArrow=none;html=1;rounded=0;exitX=0;exitY=0.25;exitDx=0;exitDy=0;entryX=0.5;entryY=1;entryDx=0;entryDy=0;" edge="1" parent="1" source="EGHb8W3hOEWeccC0JwiV-491" target="EGHb8W3hOEWeccC0JwiV-594">
          <mxGeometry width="50" height="50" relative="1" as="geometry">
            <mxPoint x="1735" y="947" as="sourcePoint" />
            <mxPoint x="1678" y="947" as="targetPoint" />
          </mxGeometry>
        </mxCell>
        <mxCell id="EGHb8W3hOEWeccC0JwiV-594" value="" style="ellipse;whiteSpace=wrap;html=1;aspect=fixed;rotation=-90;fillColor=#0A0A0A;" vertex="1" parent="1">
          <mxGeometry x="1698" y="942" width="10" height="10" as="geometry" />
        </mxCell>
        <mxCell id="EGHb8W3hOEWeccC0JwiV-595" value="" style="endArrow=none;html=1;rounded=0;exitX=1;exitY=0;exitDx=0;exitDy=0;entryX=0.5;entryY=0;entryDx=0;entryDy=0;" edge="1" parent="1" source="EGHb8W3hOEWeccC0JwiV-582" target="EGHb8W3hOEWeccC0JwiV-596">
          <mxGeometry width="50" height="50" relative="1" as="geometry">
            <mxPoint x="1692" y="983" as="sourcePoint" />
            <mxPoint x="1695" y="985" as="targetPoint" />
          </mxGeometry>
        </mxCell>
        <mxCell id="EGHb8W3hOEWeccC0JwiV-596" value="" style="ellipse;whiteSpace=wrap;html=1;aspect=fixed;rotation=-90;fillColor=#0A0A0A;" vertex="1" parent="1">
          <mxGeometry x="1700" y="977" width="10" height="10" as="geometry" />
        </mxCell>
        <mxCell id="EGHb8W3hOEWeccC0JwiV-597" value="" style="endArrow=classic;html=1;rounded=0;entryX=0.5;entryY=1;entryDx=0;entryDy=0;" edge="1" parent="1" target="EGHb8W3hOEWeccC0JwiV-428">
          <mxGeometry width="50" height="50" relative="1" as="geometry">
            <mxPoint x="1495" y="572" as="sourcePoint" />
            <mxPoint x="1595" y="552" as="targetPoint" />
          </mxGeometry>
        </mxCell>
        <mxCell id="EGHb8W3hOEWeccC0JwiV-598" value="SIN HACER-LOGICO:" style="text;html=1;align=center;verticalAlign=middle;resizable=0;points=[];autosize=1;strokeColor=none;fillColor=none;" vertex="1" parent="1">
          <mxGeometry x="1645" y="390" width="140" height="30" as="geometry" />
        </mxCell>
      </root>
    </mxGraphModel>
  </diagram>
</mxfile>
